<svg xmlns="http://www.w3.org/2000/svg" xmlns:xlink="http://www.w3.org/1999/xlink" contentStyleType="text/css" data-diagram-type="DESCRIPTION" height="386px" preserveAspectRatio="none" style="width:882px;height:386px;" version="1.1" viewBox="0 0 882 386" width="882px" zoomAndPan="magnify"><defs/><g><!--cluster UVM Testbench--><g class="cluster" data-entity="UVM Testbench" data-source-line="3" data-uid="ent0002" id="cluster_UVM Testbench"><path d="M8.5,6.602 L118.1676,6.602 A3.75,3.75 0 0 1 120.6676,9.102 L127.6676,31.6699 L872.5,31.6699 A2.5,2.5 0 0 1 875,34.1699 L875,377.102 A2.5,2.5 0 0 1 872.5,379.602 L8.5,379.602 A2.5,2.5 0 0 1 6,377.102 L6,9.102 A2.5,2.5 0 0 1 8.5,6.602" fill="none" style="stroke:#000000;stroke-width:1.5;"/><line style="stroke:#000000;stroke-width:1.5;" x1="6" x2="127.6676" y1="31.6699" y2="31.6699"/><text fill="#000000" font-family="sans-serif" font-size="14" font-weight="bold" lengthAdjust="spacing" textLength="108.6676" x="10" y="23.5679">UVM Testbench</text></g><!--cluster UVM Environment--><g class="cluster" data-entity="UVM Environment" data-source-line="6" data-uid="ent0004" id="cluster_UVM Environment"><path d="M32.5,170.602 L160.8155,170.602 A3.75,3.75 0 0 1 163.3155,173.102 L170.3155,195.6699 L848.5,195.6699 A2.5,2.5 0 0 1 851,198.1699 L851,353.102 A2.5,2.5 0 0 1 848.5,355.602 L32.5,355.602 A2.5,2.5 0 0 1 30,353.102 L30,173.102 A2.5,2.5 0 0 1 32.5,170.602" fill="none" style="stroke:#000000;stroke-width:1.5;"/><line style="stroke:#000000;stroke-width:1.5;" x1="30" x2="170.3155" y1="195.6699" y2="195.6699"/><text fill="#000000" font-family="sans-serif" font-size="14" font-weight="bold" lengthAdjust="spacing" textLength="127.3155" x="34" y="187.5679">UVM Environment</text></g><!--cluster Input Agent--><g class="cluster" data-entity="Input Agent" data-source-line="8" data-uid="ent0005" id="cluster_Input Agent"><path d="M604.5,216.602 L689.9897,216.602 A3.75,3.75 0 0 1 692.4897,219.102 L699.4897,241.6699 L824.5,241.6699 A2.5,2.5 0 0 1 827,244.1699 L827,329.102 A2.5,2.5 0 0 1 824.5,331.602 L604.5,331.602 A2.5,2.5 0 0 1 602,329.102 L602,219.102 A2.5,2.5 0 0 1 604.5,216.602" fill="none" style="stroke:#000000;stroke-width:1.5;"/><line style="stroke:#000000;stroke-width:1.5;" x1="602" x2="699.4897" y1="241.6699" y2="241.6699"/><text fill="#000000" font-family="sans-serif" font-size="14" font-weight="bold" lengthAdjust="spacing" textLength="84.4897" x="606" y="233.5679">Input Agent</text></g><!--cluster Output Agent--><g class="cluster" data-entity="Output Agent" data-source-line="13" data-uid="ent0008" id="cluster_Output Agent"><path d="M438.5,216.602 L535.7636,216.602 A3.75,3.75 0 0 1 538.2636,219.102 L545.2636,241.6699 L575.5,241.6699 A2.5,2.5 0 0 1 578,244.1699 L578,329.102 A2.5,2.5 0 0 1 575.5,331.602 L438.5,331.602 A2.5,2.5 0 0 1 436,329.102 L436,219.102 A2.5,2.5 0 0 1 438.5,216.602" fill="none" style="stroke:#000000;stroke-width:1.5;"/><line style="stroke:#000000;stroke-width:1.5;" x1="436" x2="545.2636" y1="241.6699" y2="241.6699"/><text fill="#000000" font-family="sans-serif" font-size="14" font-weight="bold" lengthAdjust="spacing" textLength="96.2636" x="440" y="233.5679">Output Agent</text></g><!--entity DUT--><g class="entity" data-entity="DUT" data-source-line="4" data-uid="ent0003" id="entity_DUT"><rect fill="#D3D3D3" height="39.0679" rx="2.5" ry="2.5" style="stroke:#181818;stroke-width:0.5;" width="48.2379" x="643" y="66.602"/><text fill="#000000" font-family="sans-serif" font-size="14" lengthAdjust="spacing" textLength="28.2379" x="653" y="91.5679">DUT</text></g><!--entity PRED--><g class="entity" data-entity="PRED" data-source-line="17" data-uid="ent0010" id="entity_PRED"><rect fill="#FFFF00" height="39.0679" rx="2.5" ry="2.5" style="stroke:#181818;stroke-width:0.5;" width="80.3958" x="46" y="276.602"/><text fill="#000000" font-family="sans-serif" font-size="14" lengthAdjust="spacing" textLength="60.3958" x="56" y="301.5679">Predictor</text></g><!--entity SCB--><g class="entity" data-entity="SCB" data-source-line="18" data-uid="ent0011" id="entity_SCB"><rect fill="#90EE90" height="39.0679" rx="2.5" ry="2.5" style="stroke:#181818;stroke-width:0.5;" width="95.8797" x="250" y="276.602"/><text fill="#000000" font-family="sans-serif" font-size="14" lengthAdjust="spacing" textLength="75.8797" x="260" y="301.5679">Scoreboard</text></g><!--entity MON_IN--><g class="entity" data-entity="MON_IN" data-source-line="9" data-uid="ent0006" id="entity_MON_IN"><rect fill="#F1F1F1" height="39.0679" rx="2.5" ry="2.5" style="stroke:#181818;stroke-width:0.5;" width="98.1757" x="618" y="276.602"/><text fill="#000000" font-family="sans-serif" font-size="14" lengthAdjust="spacing" textLength="78.1757" x="628" y="301.5679">Monitor (In)</text></g><!--entity DRV--><g class="entity" data-entity="DRV" data-source-line="10" data-uid="ent0007" id="entity_DRV"><rect fill="#F1F1F1" height="39.0679" rx="2.5" ry="2.5" style="stroke:#181818;stroke-width:0.5;" width="60.4038" x="751" y="276.602"/><text fill="#000000" font-family="sans-serif" font-size="14" lengthAdjust="spacing" textLength="40.4038" x="761" y="301.5679">Driver</text></g><!--entity MON_OUT--><g class="entity" data-entity="MON_OUT" data-source-line="14" data-uid="ent0009" id="entity_MON_OUT"><rect fill="#F1F1F1" height="39.0679" rx="2.5" ry="2.5" style="stroke:#181818;stroke-width:0.5;" width="109.4177" x="452.5" y="276.602"/><text fill="#000000" font-family="sans-serif" font-size="14" lengthAdjust="spacing" textLength="89.4177" x="462.5" y="301.5679">Monitor (Out)</text></g><!--link DRV to DUT--><g class="link" data-entity-1="DRV" data-entity-2="DUT" data-source-line="23" data-uid="lnk12" id="link_DRV_DUT"><path d="M778.38,276.582 C773.2,245.162 759.34,180.452 728,135.602 C718.39,121.852 708.7404,113.4176 696.2204,104.8976" fill="none" id="DRV-to-DUT" style="stroke:#181818;stroke-width:1;"/><polygon fill="#181818" points="691.26,101.522,696.4502,109.8923,695.3936,104.335,700.951,103.2785,691.26,101.522" style="stroke:#181818;stroke-width:1;"/><text fill="#000000" font-family="sans-serif" font-size="13" lengthAdjust="spacing" textLength="38.376" x="738" y="150.499">Drives</text></g><!--reverse link DUT to MON_IN--><g class="link" data-entity-1="DUT" data-entity-2="MON_IN" data-source-line="24" data-uid="lnk14" id="link_DUT_MON_IN"><path d="M667,111.932 C667,151.532 667,237.032 667,276.472" fill="none" id="DUT-backto-MON_IN" style="stroke:#181818;stroke-width:1;"/><polygon fill="#181818" points="667,105.932,663,114.932,667,110.932,671,114.932,667,105.932" style="stroke:#181818;stroke-width:1;"/><text fill="#000000" font-family="sans-serif" font-size="13" lengthAdjust="spacing" textLength="51.493" x="668" y="150.499">Samples</text></g><!--link MON_IN to PRED--><g class="link" data-entity-1="MON_IN" data-entity-2="PRED" data-source-line="27" data-uid="lnk15" id="link_MON_IN_PRED"><path d="M660.15,276.332 C648.57,246.412 621.99,190.642 578,167.602 C510.09,132.032 304.77,140.652 233,167.602 C174.61,189.522 127.9153,241.6028 104.1953,271.8128" fill="none" id="MON_IN-to-PRED" style="stroke:#181818;stroke-width:1;"/><polygon fill="#181818" points="100.49,276.532,109.1941,271.9235,103.5778,272.5994,102.9019,266.983,100.49,276.532" style="stroke:#181818;stroke-width:1;"/><text fill="#000000" font-family="sans-serif" font-size="13" lengthAdjust="spacing" textLength="101.7771" x="245.5" y="150.499">Observed Inputs</text></g><!--link PRED to SCB--><g class="link" data-entity-1="PRED" data-entity-2="SCB" data-source-line="28" data-uid="lnk16" id="link_PRED_SCB"><path d="M126.37,296.102 C161.57,296.102 206.69,296.102 243.98,296.102" fill="none" id="PRED-to-SCB" style="stroke:#181818;stroke-width:1;"/><polygon fill="#181818" points="249.98,296.102,240.98,292.102,244.98,296.102,240.98,300.102,249.98,296.102" style="stroke:#181818;stroke-width:1;"/><text fill="#000000" font-family="sans-serif" font-size="13" lengthAdjust="spacing" textLength="87.8411" x="144.5" y="288.999">Expected Data</text></g><!--reverse link SCB to MON_OUT--><g class="link" data-entity-1="SCB" data-entity-2="MON_OUT" data-source-line="29" data-uid="lnk18" id="link_SCB_MON_OUT"><path d="M352.21,296.102 C383.92,296.102 419.48,296.102 452.4,296.102" fill="none" id="SCB-backto-MON_OUT" style="stroke:#181818;stroke-width:1;"/><polygon fill="#181818" points="346.21,296.102,355.21,300.102,351.21,296.102,355.21,292.102,346.21,296.102" style="stroke:#181818;stroke-width:1;"/><text fill="#000000" font-family="sans-serif" font-size="13" lengthAdjust="spacing" textLength="70.0701" x="364.25" y="288.999">Actual Data</text></g><!--reverse link DUT to MON_OUT--><g class="link" data-entity-1="DUT" data-entity-2="MON_OUT" data-source-line="30" data-uid="lnk20" id="link_DUT_MON_OUT"><path d="M637.0713,92.3102 C611.2113,97.8102 576.53,109.032 553,135.602 C516.89,176.382 509.03,243.882 507.38,276.422" fill="none" id="DUT-backto-MON_OUT" style="stroke:#181818;stroke-width:1;"/><polygon fill="#181818" points="642.94,91.062,633.3048,89.0218,638.0494,92.1021,634.969,96.8467,642.94,91.062" style="stroke:#181818;stroke-width:1;"/><text fill="#000000" font-family="sans-serif" font-size="13" lengthAdjust="spacing" textLength="104.7021" x="554" y="150.499">Samples Outputs</text></g><!--SRC=[bPAnRi8m48PtFyK9XhP3Ne2X4YLKOe0W0goLaro3XNEER0UAghvxBquRMg13lJZoVVz_lyznUqMrjBA2JERxqfg6YedHneAtaXoNaBnmFPMRgZR4Pwa_QGIBkPTKQXIYPhqi4GQRxHpMw7o6bEy6y2w0Lw-3GRnP3q0wu1s6MfKxNreyYO3zCfdIGLb35Qk-RThLV_JmZEh6mxYy02_wpWqfpnUxdz53231F5Y-pnLzuRDK1RPTqjUsf3t7TFsdylm8mVqwGRDQtp7_ebXOBbRCoQ9QhQGp34sfjZhVeD3SMCoDj4V1qydIUCfBesd2ZEqYzgXhTE7XkhVYI41NcID5ZU9eHX0auqOq9egRkAwciQiqbDecbbp3Xzj8gPwZp-fROjY-hGkOH99b3Uy02meCv4Ovxg4qwWkbRpVyKCwsn-1eGH1fVpymuzutK5yHrFEZUnObF]--></g></svg>