<svg xmlns="http://www.w3.org/2000/svg" xmlns:xlink="http://www.w3.org/1999/xlink" contentStyleType="text/css" data-diagram-type="ACTIVITY" height="892px" preserveAspectRatio="none" style="width:399px;height:892px;" version="1.1" viewBox="0 0 399 892" width="399px" zoomAndPan="magnify"><defs/><g><!--cluster Build & Connect (Functions)--><g class="cluster" data-entity="Build . Connect .Functions." data-source-line="4" data-uid="ent0002" id="cluster_Build . Connect .Functions."><polygon fill="none" points="16,6.602,214.8913,6.602,221.8913,31.6699,224,31.6699,224,384.602,16,384.602,16,6.602" style="stroke:#000000;stroke-width:1.5;"/><line style="stroke:#000000;stroke-width:1.5;" x1="16" x2="221.8913" y1="31.6699" y2="31.6699"/><text fill="#000000" font-family="sans-serif" font-size="14" font-weight="bold" lengthAdjust="spacing" textLength="192.8913" x="20" y="23.5679">Build &amp; Connect (Functions)</text></g><!--cluster Simulation (Tasks)--><g class="cluster" data-entity="Simulation .Tasks." data-source-line="11" data-uid="ent0012" id="cluster_Simulation .Tasks."><polygon fill="none" points="65,408.602,199.1555,408.602,206.1555,433.6699,382,433.6699,382,498.602,65,498.602,65,408.602" style="stroke:#000000;stroke-width:1.5;"/><line style="stroke:#000000;stroke-width:1.5;" x1="65" x2="206.1555" y1="433.6699" y2="433.6699"/><text fill="#000000" font-family="sans-serif" font-size="14" font-weight="bold" lengthAdjust="spacing" textLength="128.1555" x="69" y="425.5679">Simulation (Tasks)</text></g><!--cluster Cleanup & Report (Functions)--><g class="cluster" data-entity="Cleanup . Report .Functions." data-source-line="16" data-uid="ent0018" id="cluster_Cleanup . Report .Functions."><polygon fill="none" points="35,522.602,245.0072,522.602,252.0072,547.6699,255,547.6699,255,840.602,35,840.602,35,522.602" style="stroke:#000000;stroke-width:1.5;"/><line style="stroke:#000000;stroke-width:1.5;" x1="35" x2="252.0072" y1="547.6699" y2="547.6699"/><text fill="#000000" font-family="sans-serif" font-size="14" font-weight="bold" lengthAdjust="spacing" textLength="204.0072" x="39" y="539.5679">Cleanup &amp; Report (Functions)</text></g><ellipse cx="120" cy="54.602" fill="#222222" rx="10" ry="10" style="stroke:#222222;stroke-width:1;"/><rect fill="#FFFFE0" height="36.3441" rx="12.5" ry="12.5" style="stroke:#000000;stroke-width:0.5;" width="87.7405" x="76" y="104.602"/><text fill="#000000" font-family="sans-serif" font-size="12" lengthAdjust="spacing" textLength="67.7405" x="86" y="127.4301">build_phase</text><rect fill="#FFFFE0" height="36.3441" rx="12.5" ry="12.5" style="stroke:#000000;stroke-width:0.5;" width="104.0846" x="68" y="180.602"/><text fill="#000000" font-family="sans-serif" font-size="12" lengthAdjust="spacing" textLength="84.0846" x="78" y="203.4301">connect_phase</text><rect fill="#FFFFE0" height="36.3441" rx="12.5" ry="12.5" style="stroke:#000000;stroke-width:0.5;" width="168.009" x="36" y="256.602"/><text fill="#000000" font-family="sans-serif" font-size="12" lengthAdjust="spacing" textLength="148.009" x="46" y="279.4301">end_of_elaboration_phase</text><rect fill="#FFFFE0" height="36.3441" rx="12.5" ry="12.5" style="stroke:#000000;stroke-width:0.5;" width="166.929" x="36.5" y="332.602"/><text fill="#000000" font-family="sans-serif" font-size="12" lengthAdjust="spacing" textLength="146.929" x="46.5" y="355.4301">start_of_simulation_phase</text><rect fill="#FFFFE0" height="36.3441" rx="12.5" ry="12.5" style="stroke:#000000;stroke-width:0.5;" width="79.1604" x="80.5" y="446.602"/><text fill="#000000" font-family="sans-serif" font-size="12" lengthAdjust="spacing" textLength="59.1604" x="90.5" y="469.4301">run_phase</text><g class="entity" data-entity="GN15" data-source-line="13" data-uid="ent0016" id="entity_GN15"><path d="M179.5,450.602 L179.5,460.602 L159.74,464.602 L179.5,468.602 L179.5,478.308 A0,0 0 0 0 179.5,478.308 L366.6922,478.308 A0,0 0 0 0 366.6922,478.308 L366.6922,460.602 L356.6922,450.602 L179.5,450.602 A0,0 0 0 0 179.5,450.602" fill="#FEFFDD" style="stroke:#181818;stroke-width:0.5;"/><path d="M356.6922,450.602 L356.6922,460.602 L366.6922,460.602 L356.6922,450.602" fill="#FEFFDD" style="stroke:#181818;stroke-width:0.5;"/><text fill="#000000" font-family="sans-serif" font-size="13" lengthAdjust="spacing" textLength="166.1922" x="185.5" y="469.499">Consumes Simulation Time</text></g><rect fill="#FFFFE0" height="36.3441" rx="12.5" ry="12.5" style="stroke:#000000;stroke-width:0.5;" width="98.6005" x="70.5" y="560.602"/><text fill="#000000" font-family="sans-serif" font-size="12" lengthAdjust="spacing" textLength="78.6005" x="80.5" y="583.4301">extract_phase</text><rect fill="#FFFFE0" height="36.3441" rx="12.5" ry="12.5" style="stroke:#000000;stroke-width:0.5;" width="91.4845" x="74.5" y="636.602"/><text fill="#000000" font-family="sans-serif" font-size="12" lengthAdjust="spacing" textLength="71.4845" x="84.5" y="659.4301">check_phase</text><rect fill="#FFFFE0" height="36.3441" rx="12.5" ry="12.5" style="stroke:#000000;stroke-width:0.5;" width="95.0245" x="72.5" y="712.602"/><text fill="#000000" font-family="sans-serif" font-size="12" lengthAdjust="spacing" textLength="75.0245" x="82.5" y="735.4301">report_phase</text><rect fill="#FFFFE0" height="36.3441" rx="12.5" ry="12.5" style="stroke:#000000;stroke-width:0.5;" width="83.8404" x="78" y="788.602"/><text fill="#000000" font-family="sans-serif" font-size="12" lengthAdjust="spacing" textLength="63.8404" x="88" y="811.4301">final_phase</text><ellipse cx="120" cy="875.602" fill="none" rx="11" ry="11" style="stroke:#222222;stroke-width:1.5;"/><ellipse cx="120" cy="875.602" fill="#222222" rx="6" ry="6" style="stroke:#222222;stroke-width:1;"/><!--link start to build_phase--><g class="link" data-entity-1="start" data-entity-2="build_phase" data-source-line="5" data-uid="lnk5" id="link_start_build_phase"><path d="M120,64.782 C120,74.982 120,85.682 120,98.352" fill="none" id="start-to-build_phase" style="stroke:#181818;stroke-width:1;"/><polygon fill="#181818" points="120,104.352,124,95.352,120,99.352,116,95.352,120,104.352" style="stroke:#181818;stroke-width:1;"/></g><!--link build_phase to connect_phase--><g class="link" data-entity-1="build_phase" data-entity-2="connect_phase" data-source-line="6" data-uid="lnk7" id="link_build_phase_connect_phase"><path d="M120,140.762 C120,152.722 120,162.602 120,174.532" fill="none" id="build_phase-to-connect_phase" style="stroke:#181818;stroke-width:1;"/><polygon fill="#181818" points="120,180.532,124,171.532,120,175.532,116,171.532,120,180.532" style="stroke:#181818;stroke-width:1;"/></g><!--link connect_phase to end_of_elaboration_phase--><g class="link" data-entity-1="connect_phase" data-entity-2="end_of_elaboration_phase" data-source-line="7" data-uid="lnk9" id="link_connect_phase_end_of_elaboration_phase"><path d="M120,216.762 C120,228.722 120,238.602 120,250.532" fill="none" id="connect_phase-to-end_of_elaboration_phase" style="stroke:#181818;stroke-width:1;"/><polygon fill="#181818" points="120,256.532,124,247.532,120,251.532,116,247.532,120,256.532" style="stroke:#181818;stroke-width:1;"/></g><!--link end_of_elaboration_phase to start_of_simulation_phase--><g class="link" data-entity-1="end_of_elaboration_phase" data-entity-2="start_of_simulation_phase" data-source-line="8" data-uid="lnk11" id="link_end_of_elaboration_phase_start_of_simulation_phase"><path d="M120,292.762 C120,304.722 120,314.602 120,326.532" fill="none" id="end_of_elaboration_phase-to-start_of_simulation_phase" style="stroke:#181818;stroke-width:1;"/><polygon fill="#181818" points="120,332.532,124,323.532,120,327.532,116,323.532,120,332.532" style="stroke:#181818;stroke-width:1;"/></g><!--link start_of_simulation_phase to run_phase--><g class="link" data-entity-1="start_of_simulation_phase" data-entity-2="run_phase" data-source-line="12" data-uid="lnk14" id="link_start_of_simulation_phase_run_phase"><path d="M120,368.612 C120,389.662 120,419.302 120,440.432" fill="none" id="start_of_simulation_phase-to-run_phase" style="stroke:#181818;stroke-width:1;"/><polygon fill="#181818" points="120,446.432,124,437.432,120,441.432,116,437.432,120,446.432" style="stroke:#181818;stroke-width:1;"/></g><!--link run_phase to extract_phase--><g class="link" data-entity-1="run_phase" data-entity-2="extract_phase" data-source-line="17" data-uid="lnk20" id="link_run_phase_extract_phase"><path d="M120,482.612 C120,503.662 120,533.302 120,554.432" fill="none" id="run_phase-to-extract_phase" style="stroke:#181818;stroke-width:1;"/><polygon fill="#181818" points="120,560.432,124,551.432,120,555.432,116,551.432,120,560.432" style="stroke:#181818;stroke-width:1;"/></g><!--link extract_phase to check_phase--><g class="link" data-entity-1="extract_phase" data-entity-2="check_phase" data-source-line="18" data-uid="lnk22" id="link_extract_phase_check_phase"><path d="M120,596.762 C120,608.722 120,618.602 120,630.532" fill="none" id="extract_phase-to-check_phase" style="stroke:#181818;stroke-width:1;"/><polygon fill="#181818" points="120,636.532,124,627.532,120,631.532,116,627.532,120,636.532" style="stroke:#181818;stroke-width:1;"/></g><!--link check_phase to report_phase--><g class="link" data-entity-1="check_phase" data-entity-2="report_phase" data-source-line="19" data-uid="lnk24" id="link_check_phase_report_phase"><path d="M120,672.762 C120,684.722 120,694.602 120,706.532" fill="none" id="check_phase-to-report_phase" style="stroke:#181818;stroke-width:1;"/><polygon fill="#181818" points="120,712.532,124,703.532,120,707.532,116,703.532,120,712.532" style="stroke:#181818;stroke-width:1;"/></g><!--link report_phase to final_phase--><g class="link" data-entity-1="report_phase" data-entity-2="final_phase" data-source-line="20" data-uid="lnk26" id="link_report_phase_final_phase"><path d="M120,748.762 C120,760.722 120,770.602 120,782.532" fill="none" id="report_phase-to-final_phase" style="stroke:#181818;stroke-width:1;"/><polygon fill="#181818" points="120,788.532,124,779.532,120,783.532,116,779.532,120,788.532" style="stroke:#181818;stroke-width:1;"/></g><!--link final_phase to end--><g class="link" data-entity-1="final_phase" data-entity-2="end" data-source-line="23" data-uid="lnk28" id="link_final_phase_end"><path d="M120,824.852 C120,837.422 120,848.002 120,858.492" fill="none" id="final_phase-to-end" style="stroke:#181818;stroke-width:1;"/><polygon fill="#181818" points="120,864.492,124,855.492,120,859.492,116,855.492,120,864.492" style="stroke:#181818;stroke-width:1;"/></g><!--SRC=[VP6xRiCm34LtVmNXeN0Av0Sw5AWDTEhKPkbao3AJ29P9Guy-KFJVAqLk80LfHrqUyf9NTbAq22Dc68IS3eOzZHrhDk2C81jAIAwoP-f1ElMct6TxGJ-fmz6zejRyVercCw99PAj3QrK5m2cdcA1klT8Zt437H2WTD8-UP2pPJGrV5K1pku7jzXxg8PBzSXGMww0NxqJ8D2DZIYLHI6FF-nwr6DY8Q9Kr_5bClTQ5pIDWrUnrqVnTdFLohaEp4tRwlUQV2Sd1-6mTOeTWOhftCI3hPxIGZTwf6I-CEus2_18IVSQ5pPL0Cuira8_mtKLifRA6UqGvvT5cxtNras66549Yzeg4pY8hX1CI_li7]--></g></svg>