<svg xmlns="http://www.w3.org/2000/svg" xmlns:xlink="http://www.w3.org/1999/xlink" contentStyleType="text/css" data-diagram-type="DESCRIPTION" height="897px" preserveAspectRatio="none" style="width:1279px;height:897px;" version="1.1" viewBox="0 0 1279 897" width="1279px" zoomAndPan="magnify"><defs/><g><!--cluster UVM Testbench--><g class="cluster" data-entity="UVM Testbench" data-source-line="3" data-uid="ent0002" id="cluster_UVM Testbench"><path d="M8.5,6.602 L118.1676,6.602 A3.75,3.75 0 0 1 120.6676,9.102 L127.6676,31.6699 L423.5,31.6699 A2.5,2.5 0 0 1 426,34.1699 L426,792.602 A2.5,2.5 0 0 1 423.5,795.102 L8.5,795.102 A2.5,2.5 0 0 1 6,792.602 L6,9.102 A2.5,2.5 0 0 1 8.5,6.602" fill="none" style="stroke:#000000;stroke-width:1.5;"/><line style="stroke:#000000;stroke-width:1.5;" x1="6" x2="127.6676" y1="31.6699" y2="31.6699"/><text fill="#000000" font-family="sans-serif" font-size="14" font-weight="bold" lengthAdjust="spacing" textLength="108.6676" x="10" y="23.5679">UVM Testbench</text></g><!--cluster Agents--><g class="cluster" data-entity="Agents" data-source-line="7" data-uid="ent0005" id="cluster_Agents"><path d="M121.5,270.602 L171.5278,270.602 A3.75,3.75 0 0 1 174.0278,273.102 L181.0278,295.6699 L399.5,295.6699 A2.5,2.5 0 0 1 402,298.1699 L402,483.102 A2.5,2.5 0 0 1 399.5,485.602 L121.5,485.602 A2.5,2.5 0 0 1 119,483.102 L119,273.102 A2.5,2.5 0 0 1 121.5,270.602" fill="none" style="stroke:#000000;stroke-width:1.5;"/><line style="stroke:#000000;stroke-width:1.5;" x1="119" x2="181.0278" y1="295.6699" y2="295.6699"/><text fill="#000000" font-family="sans-serif" font-size="14" font-weight="bold" lengthAdjust="spacing" textLength="49.0278" x="123" y="287.5679">Agents</text></g><!--cluster C-Domain (DPI-C)--><g class="cluster" data-entity="C-Domain .DPI-C." data-source-line="18" data-uid="ent0012" id="cluster_C-Domain .DPI-C."><path d="M766.5,554.602 L886.7795,554.602 A3.75,3.75 0 0 1 889.2795,557.102 L896.2795,579.6699 L919.5,579.6699 A2.5,2.5 0 0 1 922,582.1699 L922,667.102 A2.5,2.5 0 0 1 919.5,669.602 L766.5,669.602 A2.5,2.5 0 0 1 764,667.102 L764,557.102 A2.5,2.5 0 0 1 766.5,554.602" fill="none" style="stroke:#000000;stroke-width:1.5;"/><line style="stroke:#000000;stroke-width:1.5;" x1="764" x2="896.2795" y1="579.6699" y2="579.6699"/><text fill="#000000" font-family="sans-serif" font-size="14" font-weight="bold" lengthAdjust="spacing" textLength="119.2795" x="768" y="571.5679">C-Domain (DPI-C)</text></g><!--entity Test--><g class="entity" data-entity="Test" data-source-line="4" data-uid="ent0003" id="entity_Test"><rect fill="#F1F1F1" height="39.0679" rx="2.5" ry="2.5" style="stroke:#181818;stroke-width:0.5;" width="79.7798" x="82" y="66.602"/><text fill="#000000" font-family="sans-serif" font-size="14" lengthAdjust="spacing" textLength="59.7798" x="92" y="91.5679">uvm_test</text></g><!--entity Env--><g class="entity" data-entity="Env" data-source-line="5" data-uid="ent0004" id="entity_Env"><rect fill="#F1F1F1" height="39.0679" rx="2.5" ry="2.5" style="stroke:#181818;stroke-width:0.5;" width="78.7298" x="82.5" y="184.602"/><text fill="#000000" font-family="sans-serif" font-size="14" lengthAdjust="spacing" textLength="58.7298" x="92.5" y="209.5679">uvm_env</text></g><!--entity Predictor--><g class="entity" data-entity="Predictor" data-source-line="14" data-uid="ent0010" id="entity_Predictor"><rect fill="#F1F1F1" height="39.0679" rx="2.5" ry="2.5" style="stroke:#181818;stroke-width:0.5;" width="203.6233" x="59" y="614.602"/><text fill="#000000" font-family="sans-serif" font-size="14" lengthAdjust="spacing" textLength="183.6233" x="69" y="639.5679">Predictor (Reference Model)</text></g><!--entity Scoreboard--><g class="entity" data-entity="Scoreboard" data-source-line="15" data-uid="ent0011" id="entity_Scoreboard"><rect fill="#F1F1F1" height="39.0679" rx="2.5" ry="2.5" style="stroke:#181818;stroke-width:0.5;" width="129.9696" x="96" y="740.102"/><text fill="#000000" font-family="sans-serif" font-size="14" lengthAdjust="spacing" textLength="109.9696" x="106" y="765.0679">uvm_scoreboard</text></g><!--entity InAgent--><g class="entity" data-entity="InAgent" data-source-line="8" data-uid="ent0006" id="entity_InAgent"><rect fill="#F1F1F1" height="39.0679" rx="2.5" ry="2.5" style="stroke:#181818;stroke-width:0.5;" width="98.5117" x="137.5" y="330.602"/><text fill="#000000" font-family="sans-serif" font-size="14" lengthAdjust="spacing" textLength="78.5117" x="147.5" y="355.5679">Input Agent</text></g><!--entity OutAgent--><g class="entity" data-entity="OutAgent" data-source-line="9" data-uid="ent0007" id="entity_OutAgent"><rect fill="#F1F1F1" height="39.0679" rx="2.5" ry="2.5" style="stroke:#181818;stroke-width:0.5;" width="109.7537" x="274" y="330.602"/><text fill="#000000" font-family="sans-serif" font-size="14" lengthAdjust="spacing" textLength="89.7537" x="284" y="355.5679">Output Agent</text></g><!--entity InMon--><g class="entity" data-entity="InMon" data-source-line="10" data-uid="ent0008" id="entity_InMon"><rect fill="#F1F1F1" height="39.0679" rx="2.5" ry="2.5" style="stroke:#181818;stroke-width:0.5;" width="108.1997" x="135" y="430.602"/><text fill="#000000" font-family="sans-serif" font-size="14" lengthAdjust="spacing" textLength="88.1997" x="145" y="455.5679">uvm_monitor</text></g><!--entity OutMon--><g class="entity" data-entity="OutMon" data-source-line="11" data-uid="ent0009" id="entity_OutMon"><rect fill="#F1F1F1" height="39.0679" rx="2.5" ry="2.5" style="stroke:#181818;stroke-width:0.5;" width="108.1997" x="278" y="430.602"/><text fill="#000000" font-family="sans-serif" font-size="14" lengthAdjust="spacing" textLength="88.1997" x="288" y="455.5679">uvm_monitor</text></g><!--entity CModel--><g class="entity" data-entity="CModel" data-source-line="19" data-uid="ent0013" id="entity_CModel"><rect fill="#F1F1F1" height="39.0679" rx="2.5" ry="2.5" style="stroke:#181818;stroke-width:0.5;" width="124.8456" x="780.5" y="614.602"/><text fill="#000000" font-family="sans-serif" font-size="14" lengthAdjust="spacing" textLength="104.8456" x="790.5" y="639.5679">Golden C Model</text></g><!--entity DUT--><g class="entity" data-entity="DUT" data-source-line="22" data-uid="ent0014" id="entity_DUT"><path d="M522,745.602 C522,735.602 564.0529,735.602 564.0529,735.602 C564.0529,735.602 606.1057,735.602 606.1057,745.602 L606.1057,773.6699 C606.1057,783.6699 564.0529,783.6699 564.0529,783.6699 C564.0529,783.6699 522,783.6699 522,773.6699 L522,745.602" fill="#F1F1F1" style="stroke:#181818;stroke-width:0.5;"/><path d="M522,745.602 C522,755.602 564.0529,755.602 564.0529,755.602 C564.0529,755.602 606.1057,755.602 606.1057,745.602" fill="none" style="stroke:#181818;stroke-width:0.5;"/><text fill="#000000" font-family="sans-serif" font-size="14" lengthAdjust="spacing" textLength="64.1057" x="532" y="774.5679">DUT (RTL)</text></g><g class="entity" data-entity="GMN30" data-source-line="45" data-uid="ent0031" id="entity_GMN30"><path d="M941,611.602 L941,657.014 L1272.9473,657.014 L1272.9473,621.602 L1262.9473,611.602 L941,611.602" fill="#FEFFDD" style="stroke:#181818;stroke-width:0.5;"/><path d="M1262.9473,611.602 L1262.9473,621.602 L1272.9473,621.602 L1262.9473,611.602" fill="#FEFFDD" style="stroke:#181818;stroke-width:1;"/><text fill="#000000" font-family="sans-serif" font-size="13" lengthAdjust="spacing" textLength="192.8032" x="947" y="630.499">import "DPI-C" context function</text><text fill="#000000" font-family="sans-serif" font-size="13" lengthAdjust="spacing" textLength="310.9473" x="947" y="648.205">void calculate_expected(input_trans, output_trans);</text></g><g class="entity" data-entity="GMN33" data-source-line="50" data-uid="ent0034" id="entity_GMN33"><path d="M61,844.602 L61,890.014 A0,0 0 0 0 61,890.014 L261.0361,890.014 A0,0 0 0 0 261.0361,890.014 L261.0361,854.602 L251.0361,844.602 L165,844.602 L161,779.462 L157,844.602 L61,844.602 A0,0 0 0 0 61,844.602" fill="#FEFFDD" style="stroke:#181818;stroke-width:0.5;"/><path d="M251.0361,844.602 L251.0361,854.602 L261.0361,854.602 L251.0361,844.602" fill="#FEFFDD" style="stroke:#181818;stroke-width:0.5;"/><text fill="#000000" font-family="sans-serif" font-size="13" lengthAdjust="spacing" textLength="179.0361" x="67" y="863.499">Compares Expected vs Actual</text><text fill="#000000" font-family="sans-serif" font-size="13" lengthAdjust="spacing" textLength="141.8691" x="67" y="881.205">mismatch = `uvm_error</text></g><!--link Test to Env--><g class="link" data-entity-1="Test" data-entity-2="Env" data-source-line="25" data-uid="lnk15" id="link_Test_Env"><path d="M122,105.742 C122,127.382 122,156.882 122,178.512" fill="none" id="Test-to-Env" style="stroke:#181818;stroke-width:1;"/><polygon fill="#181818" points="122,184.512,126,175.512,122,179.512,118,175.512,122,184.512" style="stroke:#181818;stroke-width:1;"/><text fill="#000000" font-family="sans-serif" font-size="13" lengthAdjust="spacing" textLength="73.5281" x="123" y="150.499">build/config</text></g><!--reverse link Env to InAgent--><g class="link" data-entity-1="Env" data-entity-2="InAgent" data-source-line="26" data-uid="lnk16" id="link_Env_InAgent"><path d="M135.2993,234.5683 C147.7193,262.0683 165.95,302.462 178.46,330.182" fill="none" id="Env-backto-InAgent" style="stroke:#181818;stroke-width:1;"/><polygon fill="#181818" points="130.36,223.632,129.1842,230.7466,135.2993,234.5683,136.4751,227.4537,130.36,223.632" style="stroke:#181818;stroke-width:1;"/></g><!--reverse link Env to OutAgent--><g class="link" data-entity-1="Env" data-entity-2="OutAgent" data-source-line="27" data-uid="lnk17" id="link_Env_OutAgent"><path d="M173.006,221.0983 C200.566,230.6683 225.9,241.952 254,262.602 C279.95,281.672 303.09,311.242 316.59,330.392" fill="none" id="Env-backto-OutAgent" style="stroke:#181818;stroke-width:1;"/><polygon fill="#181818" points="161.67,217.162,166.0259,222.9088,173.006,221.0983,168.6501,215.3515,161.67,217.162" style="stroke:#181818;stroke-width:1;"/></g><!--reverse link Env to Predictor--><g class="link" data-entity-1="Env" data-entity-2="Predictor" data-source-line="28" data-uid="lnk18" id="link_Env_Predictor"><path d="M118.5069,235.7321 C113.5069,281.8621 104.15,392.762 119,493.602 C125.56,538.142 143.3,588.182 153.51,614.552" fill="none" id="Env-backto-Predictor" style="stroke:#181818;stroke-width:1;"/><polygon fill="#181818" points="119.8,223.802,115.1767,229.336,118.5069,235.7321,123.1302,230.1981,119.8,223.802" style="stroke:#181818;stroke-width:1;"/></g><!--reverse link Env to Scoreboard--><g class="link" data-entity-1="Env" data-entity-2="Scoreboard" data-source-line="29" data-uid="lnk19" id="link_Env_Scoreboard"><path d="M88.9104,231.5115 C59.6204,256.5615 23,296.312 23,349.102 C23,349.102 23,349.102 23,635.102 C23,685.422 74.57,720.372 114.66,739.942" fill="none" id="Env-backto-Scoreboard" style="stroke:#181818;stroke-width:1;"/><polygon fill="#181818" points="98.03,223.712,90.8703,224.5718,88.9104,231.5115,96.07,230.6516,98.03,223.712" style="stroke:#181818;stroke-width:1;"/></g><!--reverse link InAgent to InMon--><g class="link" data-entity-1="InAgent" data-entity-2="InMon" data-source-line="31" data-uid="lnk20" id="link_InAgent_InMon"><path d="M187.6305,381.9996 C187.9805,399.4596 188.27,413.262 188.62,430.592" fill="none" id="InAgent-backto-InMon" style="stroke:#181818;stroke-width:1;"/><polygon fill="#181818" points="187.39,370.002,183.5111,376.0809,187.6305,381.9996,191.5094,375.9206,187.39,370.002" style="stroke:#181818;stroke-width:1;"/></g><!--reverse link OutAgent to OutMon--><g class="link" data-entity-1="OutAgent" data-entity-2="OutMon" data-source-line="32" data-uid="lnk21" id="link_OutAgent_OutMon"><path d="M329.9441,381.9965 C330.4741,399.4565 330.9,413.262 331.43,430.592" fill="none" id="OutAgent-backto-OutMon" style="stroke:#181818;stroke-width:1;"/><polygon fill="#181818" points="329.58,370.002,325.7639,376.1206,329.9441,381.9965,333.7602,375.8779,329.58,370.002" style="stroke:#181818;stroke-width:1;"/></g><!--link InMon to Predictor--><g class="link" data-entity-1="InMon" data-entity-2="Predictor" data-source-line="34" data-uid="lnk22" id="link_InMon_Predictor"><path d="M186.11,469.892 C180.73,504.862 170.1511,573.5916 164.7911,608.4816" fill="none" id="InMon-to-Predictor" style="stroke:#0000FF;stroke-width:1;"/><polygon fill="#0000FF" points="163.88,614.412,169.2002,606.1237,164.6392,609.47,161.293,604.909,163.88,614.412" style="stroke:#0000FF;stroke-width:1;"/><text fill="#000000" font-family="sans-serif" font-size="13" lengthAdjust="spacing" textLength="112.6711" x="190.034" y="516.499">uvm_analysis_port</text><text fill="#000000" font-family="sans-serif" font-size="13" lengthAdjust="spacing" textLength="128.7391" x="182" y="534.205">(Trans into Predictor)</text></g><!--link Predictor to CModel--><g class="link" data-entity-1="Predictor" data-entity-2="CModel" data-source-line="35" data-uid="lnk23" id="link_Predictor_CModel"><path d="M182.34,614.402 C206.46,593.462 247.87,561.392 290,546.602 C447.25,491.402 498.77,510.012 664.5,527.602 C704.5,531.852 717.53,527.622 753,546.602 C784.32,563.362 808.4952,589.5641 824.6552,609.7941" fill="none" id="Predictor-to-CModel" style="stroke:#FF0000;stroke-width:1;"/><polygon fill="#FF0000" points="828.4,614.482,825.9081,604.9536,825.2794,610.5754,819.6575,609.9466,828.4,614.482" style="stroke:#FF0000;stroke-width:1;"/><text fill="#000000" font-family="sans-serif" font-size="13" lengthAdjust="spacing" textLength="57.785" x="568.2391" y="516.499">DPI-C call</text><text fill="#000000" font-family="sans-serif" font-size="13" lengthAdjust="spacing" textLength="133.2631" x="530.5" y="534.205">(C function execution)</text></g><!--reverse link Predictor to CModel--><g class="link" data-entity-1="Predictor" data-entity-2="CModel" data-source-line="36" data-uid="lnk25" id="link_Predictor_CModel"><path d="M186.8708,610.4685 C210.9908,589.5285 247.87,561.392 290,546.602 C447.25,491.402 498.77,510.012 664.5,527.602 C704.5,531.852 717.53,527.622 753,546.602 C784.32,563.362 812.24,594.252 828.4,614.482" fill="none" id="Predictor-backto-CModel" style="stroke:#FF0000;stroke-width:1;"/><polygon fill="#FF0000" points="182.34,614.402,191.7585,611.5223,186.1157,611.1241,186.5139,605.4813,182.34,614.402" style="stroke:#FF0000;stroke-width:1;"/><text fill="#000000" font-family="sans-serif" font-size="13" lengthAdjust="spacing" textLength="142.9481" x="526" y="525.499">Return expected values</text></g><!--link Predictor to Scoreboard--><g class="link" data-entity-1="Predictor" data-entity-2="Scoreboard" data-source-line="38" data-uid="lnk26" id="link_Predictor_Scoreboard"><path d="M161,653.862 C161,677.202 161,710.832 161,734.072" fill="none" id="Predictor-to-Scoreboard" style="stroke:#008000;stroke-width:1;"/><polygon fill="#008000" points="161,740.072,165,731.072,161,735.072,157,731.072,161,740.072" style="stroke:#008000;stroke-width:1;"/><text fill="#000000" font-family="sans-serif" font-size="13" lengthAdjust="spacing" textLength="93.2231" x="162" y="701.499">Expected Trans</text></g><!--link OutMon to Scoreboard--><g class="link" data-entity-1="OutMon" data-entity-2="Scoreboard" data-source-line="39" data-uid="lnk27" id="link_OutMon_Scoreboard"><path d="M333.04,469.662 C334.59,516.572 331.73,640.782 264,705.602 C248.89,720.062 234.4968,728.984 216.2668,737.494" fill="none" id="OutMon-to-Scoreboard" style="stroke:#008000;stroke-width:1;"/><polygon fill="#008000" points="210.83,740.032,220.6772,739.8496,215.3607,737.917,217.2932,732.6005,210.83,740.032" style="stroke:#008000;stroke-width:1;"/><text fill="#000000" font-family="sans-serif" font-size="13" lengthAdjust="spacing" textLength="75.4521" x="331" y="639.499">Actual Trans</text></g><!--link InMon to DUT--><g class="link" data-entity-1="InMon" data-entity-2="DUT" data-source-line="41" data-uid="lnk28" id="link_InMon_DUT"><path d="M213.98,469.712 C227.03,478.452 243.65,488.132 260,493.602 C291.79,504.232 304.16,488.462 335,501.602 C358.51,511.612 355.82,527.862 379,538.602 C398.23,547.512 408.66,534.422 426,546.602 C480.71,585.052 462.72,622.092 500,677.602 C513.69,697.982 527.2209,715.141 540.4009,730.971" fill="none" id="InMon-to-DUT" style="stroke:#181818;stroke-width:1;stroke-dasharray:7,7;"/><polygon fill="#181818" points="544.24,735.582,541.5553,726.1061,541.0407,731.7395,535.4074,731.2249,544.24,735.582" style="stroke:#181818;stroke-width:1;"/><text fill="#000000" font-family="sans-serif" font-size="13" lengthAdjust="spacing" textLength="91.0521" x="501" y="639.499">monitor inputs</text></g><!--link OutMon to DUT--><g class="link" data-entity-1="OutMon" data-entity-2="DUT" data-source-line="42" data-uid="lnk29" id="link_OutMon_DUT"><path d="M386.31,451.102 C471.52,452.392 630.58,460.422 666,501.602 C676.72,514.072 669.78,522.602 666,538.602 C665.09,542.472 663.72,543.022 662,546.602 C629.13,614.932 594.4594,691.0837 576.8294,730.1237" fill="none" id="OutMon-to-DUT" style="stroke:#181818;stroke-width:1;stroke-dasharray:7,7;"/><polygon fill="#181818" points="574.36,735.592,581.7096,729.0358,576.4178,731.0351,574.4186,725.7433,574.36,735.592" style="stroke:#181818;stroke-width:1;"/><text fill="#000000" font-family="sans-serif" font-size="13" lengthAdjust="spacing" textLength="100.2561" x="663" y="639.499">monitor outputs</text></g><!--link Predictor to GMN30--><g class="link" data-entity-1="Predictor" data-entity-2="GMN30" data-source-line="45" data-uid="lnk32" id="link_Predictor_GMN30"><path d="M177.98,614.452 C203.05,587.102 252.94,538.832 307.5,520.102 C370.24,498.572 840.33,503.282 904.5,520.102 C972.01,537.802 1040.76,583.642 1078.23,611.502" fill="none" id="Predictor-GMN30" style="stroke:#181818;stroke-width:1;stroke-dasharray:7,7;"/></g><!--SRC=[VLHDRzim3BthLn3UOSamR_SE6r0unH1WmOestIKBCbbc7A4o5KXoq6BeVnybVoKTDfyayhr7ybcIVzHqb4usK4hrM3lRKbLOOnq49ybp2Ya8FwAKROwME7OVdWs2GnKarGQ5E39VrWZPmuyLhD674aaTClWjWBzDUsfsWQDRa3wbfp3IAKLlw2HIT9IwhhcI7pGIOKd7Da1A9DAIqde2V6_39O83ho2nQ6D91-jwZPMbVwTPOCY_T0rkRXrMMZ40PdUuHpP98QniXMQUA6D-cj8hwx2qqbK9SJzknSkPUKM-i8tK1BF5xJ8lvgD_NwsfaA3egYI98YqZlP91bj8pV_6mvfRMtvZ82Du9yHOAIyG_Iblo8beFUVubkWrNKBRQL1-LfRskHGozo_FHqs4_EZW4fl66oDauegVtKj6wGM1GYp6HKf1ltfIcnIrtD9bw1LcqJ98qprxxtT6wy9DcwtWaGLEm4tQUYOd7OhpUEbqV0Wjs1aMrP2OeQGpB5B1lATa1-8IgZIkMwT6zXi5zUDtJ7ORMHTAHtSGAJf8xzvcuxA1sY1JdcJo9v9k1bQR8H6V3VmZNAhJI3F31hW-CYp_v2leZodxmUVUZtjy0csw45u9iu2iRpG6xlpYZkeaMzpvbVCifu5COVMB4oUeg6gXQ8mFk1WzcgVekFHRl-qhTRlv985KGQ_QLInk2RMBfizC2V3gR-Cpm_HzzzT0Dpzb6-qO6TO3Fy2iz5ivnnwFo7m00]--></g></svg>