<svg xmlns="http://www.w3.org/2000/svg" xmlns:xlink="http://www.w3.org/1999/xlink" contentStyleType="text/css" data-diagram-type="DESCRIPTION" height="431px" preserveAspectRatio="none" style="width:793px;height:431px;" version="1.1" viewBox="0 0 793 431" width="793px" zoomAndPan="magnify"><title>Basic Artificial Neuron Model</title><defs/><g><g class="title" data-source-line="4"><text fill="#000000" font-family="sans-serif" font-size="14" font-weight="bold" lengthAdjust="spacing" textLength="203.7972" x="287.7311" y="24.9659">Basic Artificial Neuron Model</text></g><!--cluster inputs--><g class="cluster" data-entity="inputs" data-source-line="6" data-uid="ent0002" id="cluster_inputs"><rect fill="none" height="83" rx="2.5" ry="2.5" style="stroke:#181818;stroke-width:1;" width="208" x="7" y="91.3679"/><text fill="#000000" font-family="sans-serif" font-size="14" font-weight="bold" lengthAdjust="spacing" textLength="45.7378" x="88.1311" y="108.3339">Inputs</text></g><!--cluster weights--><g class="cluster" data-entity="weights" data-source-line="12" data-uid="ent0006" id="cluster_weights"><rect fill="none" height="103" rx="2.5" ry="2.5" style="stroke:#181818;stroke-width:1;" width="287" x="239" y="81.3679"/><text fill="#000000" font-family="sans-serif" font-size="14" font-weight="bold" lengthAdjust="spacing" textLength="57.1758" x="353.9121" y="98.3339">Weights</text></g><!--entity X1--><g class="entity" data-entity="X1" data-source-line="7" data-uid="ent0003" id="entity_X1"><ellipse cx="180.9129" cy="143.8983" fill="#F1F1F1" rx="17.4129" ry="14.5303" style="stroke:#181818;stroke-width:0.5;"/><text fill="#000000" font-family="sans-serif" font-size="14" lengthAdjust="spacing" textLength="16.2119" x="172.807" y="149.9322">X1</text></g><!--entity X2--><g class="entity" data-entity="X2" data-source-line="8" data-uid="ent0004" id="entity_X2"><ellipse cx="110.9129" cy="143.8983" fill="#F1F1F1" rx="17.4129" ry="14.5303" style="stroke:#181818;stroke-width:0.5;"/><text fill="#000000" font-family="sans-serif" font-size="14" lengthAdjust="spacing" textLength="16.2119" x="102.807" y="149.9322">X2</text></g><!--entity Xn--><g class="entity" data-entity="Xn" data-source-line="9" data-uid="ent0005" id="entity_Xn"><ellipse cx="41.0964" cy="144.0451" fill="#F1F1F1" rx="17.5964" ry="14.6772" style="stroke:#181818;stroke-width:0.5;"/><text fill="#000000" font-family="sans-serif" font-size="14" lengthAdjust="spacing" textLength="16.8559" x="32.6685" y="150.079">Xn</text></g><!--entity W1--><g class="entity" data-entity="W1" data-source-line="13" data-uid="ent0007" id="entity_W1"><rect fill="#F1F1F1" height="49.0679" rx="2.5" ry="2.5" style="stroke:#181818;stroke-width:0.5;" width="61.0279" x="255.5" y="119.3679"/><rect fill="#F1F1F1" height="10" style="stroke:#181818;stroke-width:0.5;" width="15" x="296.5279" y="124.3679"/><rect fill="#F1F1F1" height="2" style="stroke:#181818;stroke-width:0.5;" width="4" x="294.5279" y="126.3679"/><rect fill="#F1F1F1" height="2" style="stroke:#181818;stroke-width:0.5;" width="4" x="294.5279" y="130.3679"/><text fill="#000000" font-family="sans-serif" font-size="14" lengthAdjust="spacing" textLength="21.0279" x="270.5" y="154.3339">W1</text></g><!--entity W2--><g class="entity" data-entity="W2" data-source-line="14" data-uid="ent0008" id="entity_W2"><rect fill="#F1F1F1" height="49.0679" rx="2.5" ry="2.5" style="stroke:#181818;stroke-width:0.5;" width="61.0279" x="351.5" y="119.3679"/><rect fill="#F1F1F1" height="10" style="stroke:#181818;stroke-width:0.5;" width="15" x="392.5279" y="124.3679"/><rect fill="#F1F1F1" height="2" style="stroke:#181818;stroke-width:0.5;" width="4" x="390.5279" y="126.3679"/><rect fill="#F1F1F1" height="2" style="stroke:#181818;stroke-width:0.5;" width="4" x="390.5279" y="130.3679"/><text fill="#000000" font-family="sans-serif" font-size="14" lengthAdjust="spacing" textLength="21.0279" x="366.5" y="154.3339">W2</text></g><!--entity Wn--><g class="entity" data-entity="Wn" data-source-line="15" data-uid="ent0009" id="entity_Wn"><rect fill="#F1F1F1" height="49.0679" rx="2.5" ry="2.5" style="stroke:#181818;stroke-width:0.5;" width="61.6719" x="448" y="119.3679"/><rect fill="#F1F1F1" height="10" style="stroke:#181818;stroke-width:0.5;" width="15" x="489.6719" y="124.3679"/><rect fill="#F1F1F1" height="2" style="stroke:#181818;stroke-width:0.5;" width="4" x="487.6719" y="126.3679"/><rect fill="#F1F1F1" height="2" style="stroke:#181818;stroke-width:0.5;" width="4" x="487.6719" y="130.3679"/><text fill="#000000" font-family="sans-serif" font-size="14" lengthAdjust="spacing" textLength="21.6719" x="463" y="154.3339">Wn</text></g><!--entity Summation--><g class="entity" data-entity="Summation" data-source-line="18" data-uid="ent0010" id="entity_Summation"><ellipse cx="430" cy="265.8679" fill="#ADD8E6" rx="8" ry="8" style="stroke:#181818;stroke-width:0.5;"/><text fill="#000000" font-family="sans-serif" font-size="14" lengthAdjust="spacing" textLength="7.98" x="426.01" y="297.8339">&#931;</text></g><!--entity Activation--><g class="entity" data-entity="Activation" data-source-line="19" data-uid="ent0011" id="entity_Activation"><ellipse cx="591" cy="265.8679" fill="#90EE90" rx="8" ry="8" style="stroke:#181818;stroke-width:0.5;"/><text fill="#000000" font-family="sans-serif" font-size="14" lengthAdjust="spacing" textLength="20.6219" x="580.689" y="297.8339">f(x)</text></g><!--entity Bias--><g class="entity" data-entity="Bias" data-source-line="29" data-uid="ent0018" id="entity_Bias"><polygon fill="#F1F1F1" points="545,129.3679,555,119.3679,632.9218,119.3679,632.9218,158.4358,622.9218,168.4358,545,168.4358,545,129.3679" style="stroke:#181818;stroke-width:0.5;"/><line style="stroke:#181818;stroke-width:0.5;" x1="622.9218" x2="632.9218" y1="129.3679" y2="119.3679"/><line style="stroke:#181818;stroke-width:0.5;" x1="545" x2="622.9218" y1="129.3679" y2="129.3679"/><line style="stroke:#181818;stroke-width:0.5;" x1="622.9218" x2="622.9218" y1="129.3679" y2="168.4358"/><text fill="#000000" font-family="sans-serif" font-size="14" lengthAdjust="spacing" textLength="47.9218" x="560" y="154.3339">Bias (b)</text></g><!--entity Output Y--><g class="entity" data-entity="Output Y" data-source-line="33" data-uid="ent0021" id="entity_Output Y"><ellipse cx="742.8797" cy="265.851" fill="#F1F1F1" rx="44.3797" ry="16.4831" style="stroke:#181818;stroke-width:0.5;"/><text fill="#000000" font-family="sans-serif" font-size="14" lengthAdjust="spacing" textLength="58.5198" x="713.6198" y="271.8849">Output Y</text></g><g class="entity" data-entity="GMN23" data-source-line="36" data-uid="ent0024" id="entity_GMN23"><path d="M517,343.3679 L517,424.192 A0,0 0 0 0 517,424.192 L664.5291,424.192 A0,0 0 0 0 664.5291,424.192 L664.5291,353.3679 L654.5291,343.3679 L595,343.3679 L591,275.2079 L587,343.3679 L517,343.3679 A0,0 0 0 0 517,343.3679" fill="#FEFFDD" style="stroke:#181818;stroke-width:0.5;"/><path d="M654.5291,343.3679 L654.5291,353.3679 L664.5291,353.3679 L654.5291,343.3679" fill="#FEFFDD" style="stroke:#181818;stroke-width:0.5;"/><text fill="#000000" font-family="sans-serif" font-size="13" lengthAdjust="spacing" textLength="126.5291" x="523" y="362.2649">Activation Functions:</text><ellipse cx="560.837" cy="376.2799" fill="#000000" rx="2.5" ry="2.5"/><text fill="#000000" font-family="sans-serif" font-size="13" lengthAdjust="spacing" textLength="49.8551" x="567.337" y="379.9709">Sigmoid</text><ellipse cx="569.8981" cy="393.986" fill="#000000" rx="2.5" ry="2.5"/><text fill="#000000" font-family="sans-serif" font-size="13" lengthAdjust="spacing" textLength="31.733" x="576.3981" y="397.677">ReLU</text><ellipse cx="570.4701" cy="411.692" fill="#000000" rx="2.5" ry="2.5"/><text fill="#000000" font-family="sans-serif" font-size="13" lengthAdjust="spacing" textLength="30.589" x="576.9701" y="415.383">Tanh</text></g><!--link X1 to W1--><g class="link" data-entity-1="X1" data-entity-2="W1" data-source-line="21" data-uid="lnk12" id="link_X1_W1"><path d="M198.64,143.8679 C217.52,143.8679 230.4,143.8679 249.29,143.8679" fill="none" id="X1-to-W1" style="stroke:#181818;stroke-width:1;"/><polygon fill="#181818" points="255.29,143.8679,246.29,139.8679,250.29,143.8679,246.29,147.8679,255.29,143.8679" style="stroke:#181818;stroke-width:1;"/></g><!--link X2 to W2--><g class="link" data-entity-1="X2" data-entity-2="W2" data-source-line="22" data-uid="lnk13" id="link_X2_W2"><path d="M114.17,129.3179 C119.78,107.9379 133.77,69.3679 163.5,58.3679 C195.39,46.5679 284.61,46.5679 316.5,58.3679 C343.68,68.4279 359.3893,92.2265 369.5793,113.7165" fill="none" id="X2-to-W2" style="stroke:#181818;stroke-width:1;"/><polygon fill="#181818" points="372.15,119.1379,371.9082,109.292,370.0078,114.6201,364.6797,112.7196,372.15,119.1379" style="stroke:#181818;stroke-width:1;"/></g><!--link Xn to Wn--><g class="link" data-entity-1="Xn" data-entity-2="Wn" data-source-line="23" data-uid="lnk14" id="link_Xn_Wn"><path d="M44.17,129.3179 C49.78,107.9379 63.77,69.3679 93.5,58.3679 C126.74,46.0679 379.26,46.0679 412.5,58.3679 C439.84,68.4779 455.8292,92.2906 466.2592,113.7706" fill="none" id="Xn-to-Wn" style="stroke:#181818;stroke-width:1;"/><polygon fill="#181818" points="468.88,119.1679,468.5471,109.3247,466.696,114.6701,461.3506,112.8191,468.88,119.1679" style="stroke:#181818;stroke-width:1;"/></g><!--link W1 to Summation--><g class="link" data-entity-1="W1" data-entity-2="Summation" data-source-line="25" data-uid="lnk15" id="link_W1_Summation"><path d="M308.84,168.7079 C316.61,176.4779 325.49,184.9979 334,192.3679 C364.48,218.7479 398.6327,243.1343 416.0327,255.2243" fill="none" id="W1-to-Summation" style="stroke:#181818;stroke-width:1;"/><polygon fill="#181818" points="420.96,258.6479,415.8514,250.2276,416.8539,255.7949,411.2866,256.7973,420.96,258.6479" style="stroke:#181818;stroke-width:1;"/></g><!--link W2 to Summation--><g class="link" data-entity-1="W2" data-entity-2="Summation" data-source-line="26" data-uid="lnk16" id="link_W2_Summation"><path d="M391.48,168.5779 C402.36,195.7579 417.3717,233.2971 424.5117,251.1471" fill="none" id="W2-to-Summation" style="stroke:#181818;stroke-width:1;"/><polygon fill="#181818" points="426.74,256.7179,427.1114,246.8761,424.883,252.0755,419.6836,249.8472,426.74,256.7179" style="stroke:#181818;stroke-width:1;"/></g><!--link Wn to Summation--><g class="link" data-entity-1="Wn" data-entity-2="Summation" data-source-line="27" data-uid="lnk17" id="link_Wn_Summation"><path d="M469.32,168.5779 C458.22,195.7579 442.8885,233.3133 435.5985,251.1633" fill="none" id="Wn-to-Summation" style="stroke:#181818;stroke-width:1;"/><polygon fill="#181818" points="433.33,256.7179,440.4359,249.8983,435.2204,252.0891,433.0297,246.8736,433.33,256.7179" style="stroke:#181818;stroke-width:1;"/></g><!--link Bias to Summation--><g class="link" data-entity-1="Bias" data-entity-2="Summation" data-source-line="30" data-uid="lnk19" id="link_Bias_Summation"><path d="M557.59,168.5779 C520.66,196.4479 466.3605,237.4353 443.8705,254.3953" fill="none" id="Bias-to-Summation" style="stroke:#181818;stroke-width:1;stroke-dasharray:7,7;"/><polygon fill="#181818" points="439.08,258.0079,448.6742,255.7827,443.0721,254.9974,443.8574,249.3953,439.08,258.0079" style="stroke:#181818;stroke-width:1;"/><text fill="#000000" font-family="sans-serif" font-size="13" lengthAdjust="spacing" textLength="49.634" x="515" y="215.2649">Additive</text></g><!--link Summation to Activation--><g class="link" data-entity-1="Summation" data-entity-2="Activation" data-source-line="32" data-uid="lnk20" id="link_Summation_Activation"><path d="M439.12,265.8679 C467.46,265.8679 547.78,265.8679 575.98,265.8679" fill="none" id="Summation-to-Activation" style="stroke:#181818;stroke-width:1;"/><polygon fill="#181818" points="581.98,265.8679,572.98,261.8679,576.98,265.8679,572.98,269.8679,581.98,265.8679" style="stroke:#181818;stroke-width:1;"/><text fill="#000000" font-family="sans-serif" font-size="13" lengthAdjust="spacing" textLength="106.8211" x="457.5" y="258.7649">Weighted Sum (z)</text></g><!--link Activation to Output Y--><g class="link" data-entity-1="Activation" data-entity-2="Output Y" data-source-line="33" data-uid="lnk22" id="link_Activation_Output Y"><path d="M600.05,265.8679 C618.97,265.8679 657.79,265.8679 692.24,265.8679" fill="none" id="Activation-to-Output Y" style="stroke:#181818;stroke-width:1;"/><polygon fill="#181818" points="698.24,265.8679,689.24,261.8679,693.24,265.8679,689.24,269.8679,698.24,265.8679" style="stroke:#181818;stroke-width:1;"/><text fill="#000000" font-family="sans-serif" font-size="13" lengthAdjust="spacing" textLength="62.1011" x="618.25" y="258.7649">Prediction</text></g><!--SRC=[PL7DQXin4BxFKmpEPRTWWttq8M074WBv8tQ9IyX1biQRmRiZezMsIKkV9k_JP-fertOsYGxYqyptCupgBSlE15FXsjXj4NmZxioNFc0CHcfjaKIeZwoTian1Y_XQ4WQo_PwZZMdAkAINE2kva4gbQFMY010vgc9kQhOu2v4tRDcKU4DDy8BNtb49a0oD54eSNCgkYVK0JOtSGlm3g2TRZVCzc1o0vF3tW_Y1k7ZUgtzrU2z_V1W_xS7a0EGfoIq7cxJ_tbhPegag4rbdExbA1lEoeIDdaxtaBMjc8__iqou2aG2inZWyxS9Mamvgt4ewg86GUZZKvp484kTBIJwNG7HNE9YpncVhRepqWBOo6lMuECMPSwmZ4i1xLUrwSq-nsnQv9CJiTmwzhdApsoRg1-2FNBbtWHpRmo2HSErZz1NwJSzJzzgpE6-a5THJhN_31HULPzVYUxhwteAbaMSWSPWyuJy0]--></g></svg>