<svg xmlns="http://www.w3.org/2000/svg" xmlns:xlink="http://www.w3.org/1999/xlink" contentStyleType="text/css" data-diagram-type="SEQUENCE" height="287px" preserveAspectRatio="none" style="width:430px;height:287px;" version="1.1" viewBox="0 0 430 287" width="430px" zoomAndPan="magnify"><defs/><g><g><title>uvm_sequence</title><rect fill="#000000" fill-opacity="0.00000" height="210.2361" width="8" x="57.0488" y="39.0679"/><line style="stroke:#181818;stroke-width:0.5;stroke-dasharray:5,5;" x1="61" x2="61" y1="39.0679" y2="249.304"/></g><g><title>uvm_sequencer</title><rect fill="#000000" fill-opacity="0.00000" height="210.2361" width="8" x="182.0374" y="39.0679"/><line style="stroke:#181818;stroke-width:0.5;stroke-dasharray:5,5;" x1="185.0976" x2="185.0976" y1="39.0679" y2="249.304"/></g><g><title>uvm_driver</title><rect fill="#000000" fill-opacity="0.00000" height="210.2361" width="8" x="294.909" y="39.0679"/><line style="stroke:#181818;stroke-width:0.5;stroke-dasharray:5,5;" x1="297.9772" x2="297.9772" y1="39.0679" y2="249.304"/></g><g><title>DUT</title><rect fill="#000000" fill-opacity="0.00000" height="210.2361" width="8" x="399.5091" y="39.0679"/><line style="stroke:#181818;stroke-width:0.5;stroke-dasharray:5,5;" x1="403.3901" x2="403.3901" y1="39.0679" y2="249.304"/></g><g class="participant participant-head" data-participant="Seq"><rect fill="#E2E2F0" height="33.0679" rx="2.5" ry="2.5" style="stroke:#181818;stroke-width:0.5;" width="112.0976" x="5" y="5"/><text fill="#000000" font-family="sans-serif" font-size="14" lengthAdjust="spacing" textLength="98.0976" x="12" y="26.9659">uvm_sequence</text></g><g class="participant participant-tail" data-participant="Seq"><rect fill="#E2E2F0" height="33.0679" rx="2.5" ry="2.5" style="stroke:#181818;stroke-width:0.5;" width="112.0976" x="5" y="248.304"/><text fill="#000000" font-family="sans-serif" font-size="14" lengthAdjust="spacing" textLength="98.0976" x="12" y="270.27">uvm_sequence</text></g><g class="participant participant-head" data-participant="Sqr"><rect fill="#E2E2F0" height="33.0679" rx="2.5" ry="2.5" style="stroke:#181818;stroke-width:0.5;" width="117.8796" x="127.0976" y="5"/><text fill="#000000" font-family="sans-serif" font-size="14" lengthAdjust="spacing" textLength="103.8796" x="134.0976" y="26.9659">uvm_sequencer</text></g><g class="participant participant-tail" data-participant="Sqr"><rect fill="#E2E2F0" height="33.0679" rx="2.5" ry="2.5" style="stroke:#181818;stroke-width:0.5;" width="117.8796" x="127.0976" y="248.304"/><text fill="#000000" font-family="sans-serif" font-size="14" lengthAdjust="spacing" textLength="103.8796" x="134.0976" y="270.27">uvm_sequencer</text></g><g class="participant participant-head" data-participant="Drv"><rect fill="#E2E2F0" height="33.0679" rx="2.5" ry="2.5" style="stroke:#181818;stroke-width:0.5;" width="87.8637" x="254.9772" y="5"/><text fill="#000000" font-family="sans-serif" font-size="14" lengthAdjust="spacing" textLength="73.8637" x="261.9772" y="26.9659">uvm_driver</text></g><g class="participant participant-tail" data-participant="Drv"><rect fill="#E2E2F0" height="33.0679" rx="2.5" ry="2.5" style="stroke:#181818;stroke-width:0.5;" width="87.8637" x="254.9772" y="248.304"/><text fill="#000000" font-family="sans-serif" font-size="14" lengthAdjust="spacing" textLength="73.8637" x="261.9772" y="270.27">uvm_driver</text></g><g class="participant participant-head" data-participant="DUT"><rect fill="#E2E2F0" height="33.0679" rx="2.5" ry="2.5" style="stroke:#181818;stroke-width:0.5;" width="42.2379" x="382.3901" y="5"/><text fill="#000000" font-family="sans-serif" font-size="14" lengthAdjust="spacing" textLength="28.2379" x="389.3901" y="26.9659">DUT</text></g><g class="participant participant-tail" data-participant="DUT"><rect fill="#E2E2F0" height="33.0679" rx="2.5" ry="2.5" style="stroke:#181818;stroke-width:0.5;" width="42.2379" x="382.3901" y="248.304"/><text fill="#000000" font-family="sans-serif" font-size="14" lengthAdjust="spacing" textLength="28.2379" x="389.3901" y="270.27">DUT</text></g><g class="message" data-participant-1="Seq" data-participant-2="Sqr"><polygon fill="#181818" points="174.0374,68.7739,184.0374,72.7739,174.0374,76.7739,178.0374,72.7739" style="stroke:#181818;stroke-width:1;"/><line style="stroke:#181818;stroke-width:1;" x1="61.0488" x2="180.0374" y1="72.7739" y2="72.7739"/><text fill="#000000" font-family="sans-serif" font-size="13" lengthAdjust="spacing" textLength="69.3811" x="68.0488" y="66.9649">start_item()</text></g><g class="message" data-participant-1="Sqr" data-participant-2="Drv"><polygon fill="#181818" points="286.909,100.4799,296.909,104.4799,286.909,108.4799,290.909,104.4799" style="stroke:#181818;stroke-width:1;"/><line style="stroke:#181818;stroke-width:1;" x1="186.0374" x2="292.909" y1="104.4799" y2="104.4799"/><text fill="#000000" font-family="sans-serif" font-size="13" lengthAdjust="spacing" textLength="20.696" x="193.0374" y="98.6709">req</text></g><g class="message" data-participant-1="Drv" data-participant-2="DUT"><polygon fill="#181818" points="391.5091,132.186,401.5091,136.186,391.5091,140.186,395.5091,136.186" style="stroke:#181818;stroke-width:1;"/><line style="stroke:#181818;stroke-width:1;" x1="298.909" x2="397.5091" y1="136.186" y2="136.186"/><text fill="#000000" font-family="sans-serif" font-size="13" lengthAdjust="spacing" textLength="69.8361" x="305.909" y="130.377">drive_pins()</text></g><g class="message" data-participant-1="DUT" data-participant-2="Drv"><polygon fill="#181818" points="309.909,163.892,299.909,167.892,309.909,171.892,305.909,167.892" style="stroke:#181818;stroke-width:1;"/><line style="stroke:#181818;stroke-width:1;stroke-dasharray:2,2;" x1="303.909" x2="402.5091" y1="167.892" y2="167.892"/><text fill="#000000" font-family="sans-serif" font-size="13" lengthAdjust="spacing" textLength="80.6001" x="315.909" y="162.083">acknowledge</text></g><g class="message" data-participant-1="Drv" data-participant-2="Sqr"><polygon fill="#181818" points="197.0374,195.598,187.0374,199.598,197.0374,203.598,193.0374,199.598" style="stroke:#181818;stroke-width:1;"/><line style="stroke:#181818;stroke-width:1;" x1="191.0374" x2="297.909" y1="199.598" y2="199.598"/><text fill="#000000" font-family="sans-serif" font-size="13" lengthAdjust="spacing" textLength="72.3321" x="203.0374" y="193.789">item_done()</text></g><g class="message" data-participant-1="Sqr" data-participant-2="Seq"><polygon fill="#181818" points="72.0488,227.304,62.0488,231.304,72.0488,235.304,68.0488,231.304" style="stroke:#181818;stroke-width:1;"/><line style="stroke:#181818;stroke-width:1;" x1="66.0488" x2="185.0374" y1="231.304" y2="231.304"/><text fill="#000000" font-family="sans-serif" font-size="13" lengthAdjust="spacing" textLength="74.5811" x="78.0488" y="225.495">finish_item()</text></g><!--SRC=[TOz14e8m34Ntd2B3IXTSm8KRkO6mxbGQCGEaa1QylgcWZkEuIkR_b__Rq16FLkm05zjqhVYPtSdtNY2AvQ0MSinqH6fej1mXdvV119ncv0Ppi07EEFqdP4Kc-KMSqBBvfIpVVbbNgr5NMQO5K1nJ21mWHEKCHHns-on9wkYvEgBlI5iIwag5Pu4PYOEYIIhUh7wM_Rr7r-BhPerFmSPvnazwgZ_0bPZ2RIj-0000]--></g></svg>