<svg xmlns="http://www.w3.org/2000/svg" xmlns:xlink="http://www.w3.org/1999/xlink" contentStyleType="text/css" data-diagram-type="SEQUENCE" height="848px" preserveAspectRatio="none" style="width:949px;height:848px;" version="1.1" viewBox="0 0 949 848" width="949px" zoomAndPan="magnify"><defs/><g><rect fill="#ADD8E6" height="836.98" style="stroke:#181818;stroke-width:0.5;" width="767.8123" x="11" y="6"/><text fill="#000000" font-family="sans-serif" font-size="13" font-weight="bold" lengthAdjust="spacing" textLength="100.9061" x="344.4531" y="19.897">UVM Testbench</text><g><title>Predictor</title><rect fill="#FFFFFF" height="76.412" style="stroke:#181818;stroke-width:1;" width="10" x="491.6782" y="525.608"/></g><g><title>DUT</title><rect fill="#FFFFFF" height="345.3541" style="stroke:#181818;stroke-width:1;" width="10" x="901.6816" y="416.49"/></g><g><title>Sequence</title><rect fill="#000000" fill-opacity="0.00000" height="706.0023" width="8" x="60.0039" y="80.8419"/><line style="stroke:#181818;stroke-width:0.5;stroke-dasharray:5,5;" x1="64" x2="64" y1="80.8419" y2="786.8441"/></g><g><title>Agent1</title><rect fill="#000000" fill-opacity="0.00000" height="706.0023" width="8" x="207.972" y="80.8419"/><line style="stroke:#181818;stroke-width:0.5;stroke-dasharray:5,5;" x1="211.5972" x2="211.5972" y1="80.8419" y2="786.8441"/></g><g><title>Agent2</title><rect fill="#000000" fill-opacity="0.00000" height="706.0023" width="8" x="361.9136" y="80.8419"/><line style="stroke:#181818;stroke-width:0.5;stroke-dasharray:5,5;" x1="365.3468" x2="365.3468" y1="80.8419" y2="786.8441"/></g><g><title>Predictor</title><rect fill="#000000" fill-opacity="0.00000" height="706.0023" width="8" x="492.6782" y="80.8419"/><line style="stroke:#181818;stroke-width:0.5;stroke-dasharray:5,5;" x1="496.4803" x2="496.4803" y1="80.8419" y2="786.8441"/></g><g><title>Scoreboard</title><rect fill="#000000" fill-opacity="0.00000" height="706.0023" width="8" x="715.8725" y="80.8419"/><line style="stroke:#181818;stroke-width:0.5;stroke-dasharray:5,5;" x1="718.9326" x2="718.9326" y1="80.8419" y2="786.8441"/></g><g><title>DUT</title><rect fill="#000000" fill-opacity="0.00000" height="706.0023" width="8" x="902.6816" y="80.8419"/><line style="stroke:#181818;stroke-width:0.5;stroke-dasharray:5,5;" x1="906.5627" x2="906.5627" y1="80.8419" y2="786.8441"/></g><g class="participant participant-head" data-participant="SEQ"><rect fill="#E2E2F0" height="33.0679" rx="2.5" ry="2.5" style="stroke:#181818;stroke-width:0.5;" width="78.0077" x="25" y="46.7739"/><text fill="#000000" font-family="sans-serif" font-size="14" lengthAdjust="spacing" textLength="64.0077" x="32" y="68.7399">Sequence</text></g><g class="participant participant-tail" data-participant="SEQ"><rect fill="#E2E2F0" height="33.0679" rx="2.5" ry="2.5" style="stroke:#181818;stroke-width:0.5;" width="78.0077" x="25" y="785.8441"/><text fill="#000000" font-family="sans-serif" font-size="14" lengthAdjust="spacing" textLength="64.0077" x="32" y="807.8101">Sequence</text></g><g class="participant participant-head" data-participant="AG1"><rect fill="#E2E2F0" height="52.1358" rx="2.5" ry="2.5" style="stroke:#181818;stroke-width:0.5;" width="120.7496" x="151.5972" y="27.706"/><text fill="#000000" font-family="sans-serif" font-size="14" lengthAdjust="spacing" textLength="47.1658" x="188.3891" y="49.672">Agent1</text><text fill="#000000" font-family="sans-serif" font-size="14" lengthAdjust="spacing" textLength="106.7496" x="158.5972" y="68.7399">(Driver/Monitor)</text></g><g class="participant participant-tail" data-participant="AG1"><rect fill="#E2E2F0" height="52.1358" rx="2.5" ry="2.5" style="stroke:#181818;stroke-width:0.5;" width="120.7496" x="151.5972" y="785.8441"/><text fill="#000000" font-family="sans-serif" font-size="14" lengthAdjust="spacing" textLength="47.1658" x="188.3891" y="807.8101">Agent1</text><text fill="#000000" font-family="sans-serif" font-size="14" lengthAdjust="spacing" textLength="106.7496" x="158.5972" y="826.878">(Driver/Monitor)</text></g><g class="participant participant-head" data-participant="AG2"><rect fill="#E2E2F0" height="52.1358" rx="2.5" ry="2.5" style="stroke:#181818;stroke-width:0.5;" width="127.1336" x="302.3468" y="27.706"/><text fill="#000000" font-family="sans-serif" font-size="14" lengthAdjust="spacing" textLength="47.1658" x="342.3307" y="49.672">Agent2</text><text fill="#000000" font-family="sans-serif" font-size="14" lengthAdjust="spacing" textLength="113.1336" x="309.3468" y="68.7399">(Passive Monitor)</text></g><g class="participant participant-tail" data-participant="AG2"><rect fill="#E2E2F0" height="52.1358" rx="2.5" ry="2.5" style="stroke:#181818;stroke-width:0.5;" width="127.1336" x="302.3468" y="785.8441"/><text fill="#000000" font-family="sans-serif" font-size="14" lengthAdjust="spacing" textLength="47.1658" x="342.3307" y="807.8101">Agent2</text><text fill="#000000" font-family="sans-serif" font-size="14" lengthAdjust="spacing" textLength="113.1336" x="309.3468" y="826.878">(Passive Monitor)</text></g><g class="participant participant-head" data-participant="PRED"><rect fill="#E2E2F0" height="52.1358" rx="2.5" ry="2.5" style="stroke:#181818;stroke-width:0.5;" width="74.3958" x="459.4803" y="27.706"/><text fill="#000000" font-family="sans-serif" font-size="14" lengthAdjust="spacing" textLength="60.3958" x="466.4803" y="49.672">Predictor</text><text fill="#000000" font-family="sans-serif" font-size="14" lengthAdjust="spacing" textLength="45.1918" x="474.0823" y="68.7399">(DPI-C)</text></g><g class="participant participant-tail" data-participant="PRED"><rect fill="#E2E2F0" height="52.1358" rx="2.5" ry="2.5" style="stroke:#181818;stroke-width:0.5;" width="74.3958" x="459.4803" y="785.8441"/><text fill="#000000" font-family="sans-serif" font-size="14" lengthAdjust="spacing" textLength="60.3958" x="466.4803" y="807.8101">Predictor</text><text fill="#000000" font-family="sans-serif" font-size="14" lengthAdjust="spacing" textLength="45.1918" x="474.0823" y="826.878">(DPI-C)</text></g><g class="participant participant-head" data-participant="SB"><rect fill="#E2E2F0" height="33.0679" rx="2.5" ry="2.5" style="stroke:#181818;stroke-width:0.5;" width="89.8797" x="674.9326" y="46.7739"/><text fill="#000000" font-family="sans-serif" font-size="14" lengthAdjust="spacing" textLength="75.8797" x="681.9326" y="68.7399">Scoreboard</text></g><g class="participant participant-tail" data-participant="SB"><rect fill="#E2E2F0" height="33.0679" rx="2.5" ry="2.5" style="stroke:#181818;stroke-width:0.5;" width="89.8797" x="674.9326" y="785.8441"/><text fill="#000000" font-family="sans-serif" font-size="14" lengthAdjust="spacing" textLength="75.8797" x="681.9326" y="807.8101">Scoreboard</text></g><g class="participant participant-head" data-participant="DUT"><rect fill="#E2E2F0" height="33.0679" rx="2.5" ry="2.5" style="stroke:#181818;stroke-width:0.5;" width="42.2379" x="885.5627" y="46.7739"/><text fill="#000000" font-family="sans-serif" font-size="14" lengthAdjust="spacing" textLength="28.2379" x="892.5627" y="68.7399">DUT</text></g><g class="participant participant-tail" data-participant="DUT"><rect fill="#E2E2F0" height="33.0679" rx="2.5" ry="2.5" style="stroke:#181818;stroke-width:0.5;" width="42.2379" x="885.5627" y="785.8441"/><text fill="#000000" font-family="sans-serif" font-size="14" lengthAdjust="spacing" textLength="28.2379" x="892.5627" y="807.8101">DUT</text></g><g><title>Predictor</title><rect fill="#FFFFFF" height="76.412" style="stroke:#181818;stroke-width:1;" width="10" x="491.6782" y="525.608"/></g><g><title>DUT</title><rect fill="#FFFFFF" height="345.3541" style="stroke:#181818;stroke-width:1;" width="10" x="901.6816" y="416.49"/></g><rect fill="#EEEEEE" height="3" style="stroke:#EEEEEE;stroke-width:1;" width="942.8006" x="0" y="112.6949"/><line style="stroke:#000000;stroke-width:1;" x1="0" x2="942.8006" y1="112.6949" y2="112.6949"/><line style="stroke:#000000;stroke-width:1;" x1="0" x2="942.8006" y1="115.6949" y2="115.6949"/><rect fill="#EEEEEE" height="25.706" style="stroke:#000000;stroke-width:2;" width="199.9911" x="371.4047" y="100.8419"/><text fill="#000000" font-family="sans-serif" font-size="13" font-weight="bold" lengthAdjust="spacing" textLength="182.6111" x="377.4047" y="118.7389">Configuration &amp; Build Phase</text><g class="message" data-participant-1="AG1" data-participant-2="AG1"><line style="stroke:#181818;stroke-width:1;" x1="211.972" x2="253.972" y1="160.2539" y2="160.2539"/><line style="stroke:#181818;stroke-width:1;" x1="253.972" x2="253.972" y1="160.2539" y2="173.2539"/><line style="stroke:#181818;stroke-width:1;" x1="212.972" x2="253.972" y1="173.2539" y2="173.2539"/><polygon fill="#181818" points="222.972,169.2539,212.972,173.2539,222.972,177.2539,218.972,173.2539" style="stroke:#181818;stroke-width:1;"/><text fill="#000000" font-family="sans-serif" font-size="13" lengthAdjust="spacing" textLength="138.3461" x="218.972" y="154.4449">Build Drivers/Monitors</text></g><g class="message" data-participant-1="AG2" data-participant-2="AG2"><line style="stroke:#181818;stroke-width:1;" x1="365.9136" x2="407.9136" y1="204.9599" y2="204.9599"/><line style="stroke:#181818;stroke-width:1;" x1="407.9136" x2="407.9136" y1="204.9599" y2="217.9599"/><line style="stroke:#181818;stroke-width:1;" x1="366.9136" x2="407.9136" y1="217.9599" y2="217.9599"/><polygon fill="#181818" points="376.9136,213.9599,366.9136,217.9599,376.9136,221.9599,372.9136,217.9599" style="stroke:#181818;stroke-width:1;"/><text fill="#000000" font-family="sans-serif" font-size="13" lengthAdjust="spacing" textLength="83.5381" x="372.9136" y="199.1509">Build Monitor</text></g><g class="message" data-participant-1="PRED" data-participant-2="PRED"><line style="stroke:#181818;stroke-width:1;" x1="496.6782" x2="538.6782" y1="249.6659" y2="249.6659"/><line style="stroke:#181818;stroke-width:1;" x1="538.6782" x2="538.6782" y1="249.6659" y2="262.6659"/><line style="stroke:#181818;stroke-width:1;" x1="497.6782" x2="538.6782" y1="262.6659" y2="262.6659"/><polygon fill="#181818" points="507.6782,258.6659,497.6782,262.6659,507.6782,266.6659,503.6782,262.6659" style="stroke:#181818;stroke-width:1;"/><text fill="#000000" font-family="sans-serif" font-size="13" lengthAdjust="spacing" textLength="83.2781" x="503.6782" y="243.8569">Load C Model</text></g><g class="message" data-participant-1="SB" data-participant-2="SB"><line style="stroke:#181818;stroke-width:1;" x1="719.8725" x2="761.8725" y1="294.3719" y2="294.3719"/><line style="stroke:#181818;stroke-width:1;" x1="761.8725" x2="761.8725" y1="294.3719" y2="307.3719"/><line style="stroke:#181818;stroke-width:1;" x1="720.8725" x2="761.8725" y1="307.3719" y2="307.3719"/><polygon fill="#181818" points="730.8725,303.3719,720.8725,307.3719,730.8725,311.3719,726.8725,307.3719" style="stroke:#181818;stroke-width:1;"/><text fill="#000000" font-family="sans-serif" font-size="13" lengthAdjust="spacing" textLength="138.6191" x="726.8725" y="288.5629">Connect Analysis Ports</text></g><rect fill="#EEEEEE" height="3" style="stroke:#EEEEEE;stroke-width:1;" width="942.8006" x="0" y="337.2249"/><line style="stroke:#000000;stroke-width:1;" x1="0" x2="942.8006" y1="337.2249" y2="337.2249"/><line style="stroke:#000000;stroke-width:1;" x1="0" x2="942.8006" y1="340.2249" y2="340.2249"/><rect fill="#EEEEEE" height="25.706" style="stroke:#000000;stroke-width:2;" width="151.0721" x="395.8642" y="325.3719"/><text fill="#000000" font-family="sans-serif" font-size="13" font-weight="bold" lengthAdjust="spacing" textLength="133.6921" x="401.8642" y="343.2689">Stimulus Generation</text><g class="message" data-participant-1="SEQ" data-participant-2="AG1"><polygon fill="#181818" points="199.972,380.784,209.972,384.784,199.972,388.784,203.972,384.784" style="stroke:#181818;stroke-width:1;"/><line style="stroke:#181818;stroke-width:1;" x1="64.0039" x2="205.972" y1="384.784" y2="384.784"/><text fill="#000000" font-family="sans-serif" font-size="13" lengthAdjust="spacing" textLength="123.9681" x="71.0039" y="378.975">Start Sequence Item</text></g><g class="message" data-participant-1="AG1" data-participant-2="DUT"><polygon fill="#181818" points="889.6816,412.49,899.6816,416.49,889.6816,420.49,893.6816,416.49" style="stroke:#181818;stroke-width:1;"/><line style="stroke:#181818;stroke-width:1;" x1="211.972" x2="895.6816" y1="416.49" y2="416.49"/><text fill="#000000" font-family="sans-serif" font-size="13" lengthAdjust="spacing" textLength="151.5022" x="218.972" y="410.681">Drive Transaction (Input)</text></g><rect fill="#EEEEEE" height="3" style="stroke:#EEEEEE;stroke-width:1;" width="942.8006" x="0" y="446.343"/><line style="stroke:#000000;stroke-width:1;" x1="0" x2="942.8006" y1="446.343" y2="446.343"/><line style="stroke:#000000;stroke-width:1;" x1="0" x2="942.8006" y1="449.343" y2="449.343"/><rect fill="#EEEEEE" height="25.706" style="stroke:#000000;stroke-width:2;" width="208.1941" x="367.3032" y="434.49"/><text fill="#000000" font-family="sans-serif" font-size="13" font-weight="bold" lengthAdjust="spacing" textLength="190.8141" x="373.3032" y="452.387">Data Monitoring &amp; Prediction</text><g class="message" data-participant-1="AG1" data-participant-2="SB"><polygon fill="#181818" points="707.8725,489.902,717.8725,493.902,707.8725,497.902,711.8725,493.902" style="stroke:#181818;stroke-width:1;"/><line style="stroke:#181818;stroke-width:1;" x1="211.972" x2="713.8725" y1="493.902" y2="493.902"/><text fill="#000000" font-family="sans-serif" font-size="13" lengthAdjust="spacing" textLength="194.8962" x="218.972" y="488.093">Monitor Actual Output (via TLM)</text></g><g class="message" data-participant-1="AG1" data-participant-2="PRED"><polygon fill="#181818" points="479.6782,521.608,489.6782,525.608,479.6782,529.608,483.6782,525.608" style="stroke:#181818;stroke-width:1;"/><line style="stroke:#181818;stroke-width:1;" x1="211.972" x2="485.6782" y1="525.608" y2="525.608"/><text fill="#000000" font-family="sans-serif" font-size="13" lengthAdjust="spacing" textLength="149.8641" x="218.972" y="519.799">Send Transaction for Ref</text></g><g class="message" data-participant-1="PRED" data-participant-2="PRED"><line style="stroke:#181818;stroke-width:1;" x1="501.6782" x2="543.6782" y1="557.314" y2="557.314"/><line style="stroke:#181818;stroke-width:1;" x1="543.6782" x2="543.6782" y1="557.314" y2="570.314"/><line style="stroke:#181818;stroke-width:1;" x1="502.6782" x2="543.6782" y1="570.314" y2="570.314"/><polygon fill="#181818" points="512.6782,566.314,502.6782,570.314,512.6782,574.314,508.6782,570.314" style="stroke:#181818;stroke-width:1;"/><text fill="#000000" font-family="sans-serif" font-size="13" lengthAdjust="spacing" textLength="141.6611" x="508.6782" y="551.505">Execute DPI-C Function</text></g><g class="message" data-participant-1="PRED" data-participant-2="SB"><polygon fill="#181818" points="707.8725,598.0201,717.8725,602.0201,707.8725,606.0201,711.8725,602.0201" style="stroke:#181818;stroke-width:1;"/><line style="stroke:#181818;stroke-width:1;stroke-dasharray:2,2;" x1="496.6782" x2="713.8725" y1="602.0201" y2="602.0201"/><text fill="#000000" font-family="sans-serif" font-size="13" lengthAdjust="spacing" textLength="194.1942" x="503.6782" y="596.2111">Send Expected Output (via TLM)</text></g><rect fill="#EEEEEE" height="3" style="stroke:#EEEEEE;stroke-width:1;" width="942.8006" x="0" y="631.8731"/><line style="stroke:#000000;stroke-width:1;" x1="0" x2="942.8006" y1="631.8731" y2="631.8731"/><line style="stroke:#000000;stroke-width:1;" x1="0" x2="942.8006" y1="634.8731" y2="634.8731"/><rect fill="#EEEEEE" height="25.706" style="stroke:#000000;stroke-width:2;" width="93.1051" x="424.8477" y="620.0201"/><text fill="#000000" font-family="sans-serif" font-size="13" font-weight="bold" lengthAdjust="spacing" textLength="75.7251" x="430.8477" y="637.9171">Verification</text><g class="message" data-participant-1="DUT" data-participant-2="AG1"><polygon fill="#181818" points="222.972,675.4321,212.972,679.4321,222.972,683.4321,218.972,679.4321" style="stroke:#181818;stroke-width:1;"/><line style="stroke:#181818;stroke-width:1;stroke-dasharray:2,2;" x1="216.972" x2="900.6816" y1="679.4321" y2="679.4321"/><text fill="#000000" font-family="sans-serif" font-size="13" lengthAdjust="spacing" textLength="87.4511" x="228.972" y="673.6231">Signal Change</text></g><g class="message" data-participant-1="SB" data-participant-2="SB"><line style="stroke:#181818;stroke-width:1;" x1="719.8725" x2="761.8725" y1="711.1381" y2="711.1381"/><line style="stroke:#181818;stroke-width:1;" x1="761.8725" x2="761.8725" y1="711.1381" y2="724.1381"/><line style="stroke:#181818;stroke-width:1;" x1="720.8725" x2="761.8725" y1="724.1381" y2="724.1381"/><polygon fill="#181818" points="730.8725,720.1381,720.8725,724.1381,730.8725,728.1381,726.8725,724.1381" style="stroke:#181818;stroke-width:1;"/><text fill="#000000" font-family="sans-serif" font-size="13" lengthAdjust="spacing" textLength="172.8091" x="726.8725" y="705.3291">Compare Actual vs Expected</text></g><g class="message" data-participant-1="SB" data-participant-2="SB"><line style="stroke:#181818;stroke-width:1;" x1="719.8725" x2="761.8725" y1="755.8441" y2="755.8441"/><line style="stroke:#181818;stroke-width:1;" x1="761.8725" x2="761.8725" y1="755.8441" y2="768.8441"/><line style="stroke:#181818;stroke-width:1;" x1="720.8725" x2="761.8725" y1="768.8441" y2="768.8441"/><polygon fill="#181818" points="730.8725,764.8441,720.8725,768.8441,730.8725,772.8441,726.8725,768.8441" style="stroke:#181818;stroke-width:1;"/><text fill="#000000" font-family="sans-serif" font-size="13" lengthAdjust="spacing" textLength="97.9161" x="726.8725" y="750.0351">Report Pass/Fail</text></g><!--SRC=[RPDDRzf048Rl-oj6L8hW4ALmHA8I1X8XWUfYabCkWtSmgvXTTpyG_VUTzGV1QK-M_RuxyxmpQ_UXT8KMpt30_AEm9cYvCAMnu2rgnn9fBzpDbQBrAbSLQf-Yb4eNCFv-foVcUlTT7CmL1gzlMzYJymVI-Ma0tpQgEFca32IgpsemoEXtO0SD01ragrzzTLumoFXT3vTMNSW-ROrMtjXHxPw_ZF_Zdh0xHUVO3r_iaxuzjIHLpdgidwuV5uqltQsMNnXpO-bWqCg6CX6a9N1AqVSjN_UrWPz2p6QmCFgeYc3HAwFX0PAWIWdf2Ht1R2QO7nv_n1ZJLcfIkYwcOykaiKmwIok9I1cb-9p2ng241OkIIf4bKSYIQGJGb7kOQop_ECNPZFMkPikyEeSoE7WXJIqXC_46RaoPvt3GBGZMdiuTCoUSDhImZpS6yxh0SAshu4SYlbxGqsqII_JOeSTRyW3jyDksRTd8tBfWdlk09VmCdal2yA8GzfljgBCskREuY7k28v_SqV6JeDvcVrYhA-KXmiMTmtFGzT7Mr5BKXLVNYgT7yby8IVq6CUCRMNLK-MsKdBqkrynI5Rm3M9nG5zJRq3d-RLtQYxirlJFjgEAzGRpLJy-eId7Vdzly1G00]--></g></svg>