<svg xmlns="http://www.w3.org/2000/svg" xmlns:xlink="http://www.w3.org/1999/xlink" contentStyleType="text/css" data-diagram-type="DESCRIPTION" height="391px" preserveAspectRatio="none" style="width:793px;height:391px;" version="1.1" viewBox="0 0 793 391" width="793px" zoomAndPan="magnify"><defs/><g><!--cluster inputs--><g class="cluster" data-entity="inputs" data-source-line="4" data-uid="ent0002" id="cluster_inputs"><rect fill="none" height="83" rx="2.5" ry="2.5" style="stroke:#181818;stroke-width:1;" width="208" x="7" y="51.3"/><text fill="#000000" font-family="sans-serif" font-size="14" font-weight="bold" lengthAdjust="spacing" textLength="45.7378" x="88.1311" y="68.2659">Inputs</text></g><!--cluster weights--><g class="cluster" data-entity="weights" data-source-line="10" data-uid="ent0006" id="cluster_weights"><rect fill="none" height="103" rx="2.5" ry="2.5" style="stroke:#181818;stroke-width:1;" width="287" x="239" y="41.3"/><text fill="#000000" font-family="sans-serif" font-size="14" font-weight="bold" lengthAdjust="spacing" textLength="57.1758" x="353.9121" y="58.2659">Weights</text></g><!--entity X1--><g class="entity" data-entity="X1" data-source-line="5" data-uid="ent0003" id="entity_X1"><ellipse cx="180.9129" cy="103.8303" fill="#F1F1F1" rx="17.4129" ry="14.5303" style="stroke:#181818;stroke-width:0.5;"/><text fill="#000000" font-family="sans-serif" font-size="14" lengthAdjust="spacing" textLength="16.2119" x="172.807" y="109.8643">X1</text></g><!--entity X2--><g class="entity" data-entity="X2" data-source-line="6" data-uid="ent0004" id="entity_X2"><ellipse cx="110.9129" cy="103.8303" fill="#F1F1F1" rx="17.4129" ry="14.5303" style="stroke:#181818;stroke-width:0.5;"/><text fill="#000000" font-family="sans-serif" font-size="14" lengthAdjust="spacing" textLength="16.2119" x="102.807" y="109.8643">X2</text></g><!--entity Xn--><g class="entity" data-entity="Xn" data-source-line="7" data-uid="ent0005" id="entity_Xn"><ellipse cx="41.0964" cy="103.9772" fill="#F1F1F1" rx="17.5964" ry="14.6772" style="stroke:#181818;stroke-width:0.5;"/><text fill="#000000" font-family="sans-serif" font-size="14" lengthAdjust="spacing" textLength="16.8559" x="32.6685" y="110.0111">Xn</text></g><!--entity W1--><g class="entity" data-entity="W1" data-source-line="11" data-uid="ent0007" id="entity_W1"><rect fill="#F1F1F1" height="49.0679" rx="2.5" ry="2.5" style="stroke:#181818;stroke-width:0.5;" width="61.0279" x="255.5" y="79.3"/><rect fill="#F1F1F1" height="10" style="stroke:#181818;stroke-width:0.5;" width="15" x="296.5279" y="84.3"/><rect fill="#F1F1F1" height="2" style="stroke:#181818;stroke-width:0.5;" width="4" x="294.5279" y="86.3"/><rect fill="#F1F1F1" height="2" style="stroke:#181818;stroke-width:0.5;" width="4" x="294.5279" y="90.3"/><text fill="#000000" font-family="sans-serif" font-size="14" lengthAdjust="spacing" textLength="21.0279" x="270.5" y="114.2659">W1</text></g><!--entity W2--><g class="entity" data-entity="W2" data-source-line="12" data-uid="ent0008" id="entity_W2"><rect fill="#F1F1F1" height="49.0679" rx="2.5" ry="2.5" style="stroke:#181818;stroke-width:0.5;" width="61.0279" x="351.5" y="79.3"/><rect fill="#F1F1F1" height="10" style="stroke:#181818;stroke-width:0.5;" width="15" x="392.5279" y="84.3"/><rect fill="#F1F1F1" height="2" style="stroke:#181818;stroke-width:0.5;" width="4" x="390.5279" y="86.3"/><rect fill="#F1F1F1" height="2" style="stroke:#181818;stroke-width:0.5;" width="4" x="390.5279" y="90.3"/><text fill="#000000" font-family="sans-serif" font-size="14" lengthAdjust="spacing" textLength="21.0279" x="366.5" y="114.2659">W2</text></g><!--entity Wn--><g class="entity" data-entity="Wn" data-source-line="13" data-uid="ent0009" id="entity_Wn"><rect fill="#F1F1F1" height="49.0679" rx="2.5" ry="2.5" style="stroke:#181818;stroke-width:0.5;" width="61.6719" x="448" y="79.3"/><rect fill="#F1F1F1" height="10" style="stroke:#181818;stroke-width:0.5;" width="15" x="489.6719" y="84.3"/><rect fill="#F1F1F1" height="2" style="stroke:#181818;stroke-width:0.5;" width="4" x="487.6719" y="86.3"/><rect fill="#F1F1F1" height="2" style="stroke:#181818;stroke-width:0.5;" width="4" x="487.6719" y="90.3"/><text fill="#000000" font-family="sans-serif" font-size="14" lengthAdjust="spacing" textLength="21.6719" x="463" y="114.2659">Wn</text></g><!--entity Summation--><g class="entity" data-entity="Summation" data-source-line="16" data-uid="ent0010" id="entity_Summation"><ellipse cx="430" cy="225.8" fill="#ADD8E6" rx="8" ry="8" style="stroke:#181818;stroke-width:0.5;"/><text fill="#000000" font-family="sans-serif" font-size="14" lengthAdjust="spacing" textLength="7.98" x="426.01" y="257.7659">&#931;</text></g><!--entity Activation--><g class="entity" data-entity="Activation" data-source-line="17" data-uid="ent0011" id="entity_Activation"><ellipse cx="591" cy="225.8" fill="#90EE90" rx="8" ry="8" style="stroke:#181818;stroke-width:0.5;"/><text fill="#000000" font-family="sans-serif" font-size="14" lengthAdjust="spacing" textLength="20.6219" x="580.689" y="257.7659">f(x)</text></g><!--entity Bias--><g class="entity" data-entity="Bias" data-source-line="27" data-uid="ent0018" id="entity_Bias"><polygon fill="#F1F1F1" points="545,89.3,555,79.3,632.9218,79.3,632.9218,118.3679,622.9218,128.3679,545,128.3679,545,89.3" style="stroke:#181818;stroke-width:0.5;"/><line style="stroke:#181818;stroke-width:0.5;" x1="622.9218" x2="632.9218" y1="89.3" y2="79.3"/><line style="stroke:#181818;stroke-width:0.5;" x1="545" x2="622.9218" y1="89.3" y2="89.3"/><line style="stroke:#181818;stroke-width:0.5;" x1="622.9218" x2="622.9218" y1="89.3" y2="128.3679"/><text fill="#000000" font-family="sans-serif" font-size="14" lengthAdjust="spacing" textLength="47.9218" x="560" y="114.2659">Bias (b)</text></g><!--entity Output Y--><g class="entity" data-entity="Output Y" data-source-line="31" data-uid="ent0021" id="entity_Output Y"><ellipse cx="742.8797" cy="225.7831" fill="#F1F1F1" rx="44.3797" ry="16.4831" style="stroke:#181818;stroke-width:0.5;"/><text fill="#000000" font-family="sans-serif" font-size="14" lengthAdjust="spacing" textLength="58.5198" x="713.6198" y="231.817">Output Y</text></g><g class="entity" data-entity="GMN23" data-source-line="34" data-uid="ent0024" id="entity_GMN23"><path d="M517,303.3 L517,384.1241 A0,0 0 0 0 517,384.1241 L664.5291,384.1241 A0,0 0 0 0 664.5291,384.1241 L664.5291,313.3 L654.5291,303.3 L595,303.3 L591,235.14 L587,303.3 L517,303.3 A0,0 0 0 0 517,303.3" fill="#FEFFDD" style="stroke:#181818;stroke-width:0.5;"/><path d="M654.5291,303.3 L654.5291,313.3 L664.5291,313.3 L654.5291,303.3" fill="#FEFFDD" style="stroke:#181818;stroke-width:0.5;"/><text fill="#000000" font-family="sans-serif" font-size="13" lengthAdjust="spacing" textLength="126.5291" x="523" y="322.197">Activation Functions:</text><ellipse cx="560.837" cy="336.212" fill="#000000" rx="2.5" ry="2.5"/><text fill="#000000" font-family="sans-serif" font-size="13" lengthAdjust="spacing" textLength="49.8551" x="567.337" y="339.903">Sigmoid</text><ellipse cx="569.8981" cy="353.918" fill="#000000" rx="2.5" ry="2.5"/><text fill="#000000" font-family="sans-serif" font-size="13" lengthAdjust="spacing" textLength="31.733" x="576.3981" y="357.609">ReLU</text><ellipse cx="570.4701" cy="371.6241" fill="#000000" rx="2.5" ry="2.5"/><text fill="#000000" font-family="sans-serif" font-size="13" lengthAdjust="spacing" textLength="30.589" x="576.9701" y="375.3151">Tanh</text></g><!--link X1 to W1--><g class="link" data-entity-1="X1" data-entity-2="W1" data-source-line="19" data-uid="lnk12" id="link_X1_W1"><path d="M198.64,103.8 C217.52,103.8 230.4,103.8 249.29,103.8" fill="none" id="X1-to-W1" style="stroke:#181818;stroke-width:1;"/><polygon fill="#181818" points="255.29,103.8,246.29,99.8,250.29,103.8,246.29,107.8,255.29,103.8" style="stroke:#181818;stroke-width:1;"/></g><!--link X2 to W2--><g class="link" data-entity-1="X2" data-entity-2="W2" data-source-line="20" data-uid="lnk13" id="link_X2_W2"><path d="M114.17,89.25 C119.78,67.87 133.77,29.3 163.5,18.3 C195.39,6.5 284.61,6.5 316.5,18.3 C343.68,28.36 359.3893,52.1586 369.5793,73.6486" fill="none" id="X2-to-W2" style="stroke:#181818;stroke-width:1;"/><polygon fill="#181818" points="372.15,79.07,371.9082,69.2241,370.0078,74.5522,364.6797,72.6517,372.15,79.07" style="stroke:#181818;stroke-width:1;"/></g><!--link Xn to Wn--><g class="link" data-entity-1="Xn" data-entity-2="Wn" data-source-line="21" data-uid="lnk14" id="link_Xn_Wn"><path d="M44.17,89.25 C49.78,67.87 63.77,29.3 93.5,18.3 C126.74,6 379.26,6 412.5,18.3 C439.84,28.41 455.8292,52.2226 466.2592,73.7026" fill="none" id="Xn-to-Wn" style="stroke:#181818;stroke-width:1;"/><polygon fill="#181818" points="468.88,79.1,468.5471,69.2568,466.696,74.6022,461.3506,72.7512,468.88,79.1" style="stroke:#181818;stroke-width:1;"/></g><!--link W1 to Summation--><g class="link" data-entity-1="W1" data-entity-2="Summation" data-source-line="23" data-uid="lnk15" id="link_W1_Summation"><path d="M308.84,128.64 C316.61,136.41 325.49,144.93 334,152.3 C364.48,178.68 398.6327,203.0664 416.0327,215.1564" fill="none" id="W1-to-Summation" style="stroke:#181818;stroke-width:1;"/><polygon fill="#181818" points="420.96,218.58,415.8514,210.1596,416.8539,215.727,411.2866,216.7294,420.96,218.58" style="stroke:#181818;stroke-width:1;"/></g><!--link W2 to Summation--><g class="link" data-entity-1="W2" data-entity-2="Summation" data-source-line="24" data-uid="lnk16" id="link_W2_Summation"><path d="M391.48,128.51 C402.36,155.69 417.3717,193.2291 424.5117,211.0791" fill="none" id="W2-to-Summation" style="stroke:#181818;stroke-width:1;"/><polygon fill="#181818" points="426.74,216.65,427.1114,206.8081,424.883,212.0076,419.6836,209.7793,426.74,216.65" style="stroke:#181818;stroke-width:1;"/></g><!--link Wn to Summation--><g class="link" data-entity-1="Wn" data-entity-2="Summation" data-source-line="25" data-uid="lnk17" id="link_Wn_Summation"><path d="M469.32,128.51 C458.22,155.69 442.8885,193.2454 435.5985,211.0954" fill="none" id="Wn-to-Summation" style="stroke:#181818;stroke-width:1;"/><polygon fill="#181818" points="433.33,216.65,440.4359,209.8304,435.2204,212.0212,433.0297,206.8057,433.33,216.65" style="stroke:#181818;stroke-width:1;"/></g><!--link Bias to Summation--><g class="link" data-entity-1="Bias" data-entity-2="Summation" data-source-line="28" data-uid="lnk19" id="link_Bias_Summation"><path d="M557.59,128.51 C520.66,156.38 466.3605,197.3674 443.8705,214.3274" fill="none" id="Bias-to-Summation" style="stroke:#181818;stroke-width:1;stroke-dasharray:7,7;"/><polygon fill="#181818" points="439.08,217.94,448.6742,215.7148,443.0721,214.9295,443.8574,209.3274,439.08,217.94" style="stroke:#181818;stroke-width:1;"/><text fill="#000000" font-family="sans-serif" font-size="13" lengthAdjust="spacing" textLength="49.634" x="515" y="175.197">Additive</text></g><!--link Summation to Activation--><g class="link" data-entity-1="Summation" data-entity-2="Activation" data-source-line="30" data-uid="lnk20" id="link_Summation_Activation"><path d="M439.12,225.8 C467.46,225.8 547.78,225.8 575.98,225.8" fill="none" id="Summation-to-Activation" style="stroke:#181818;stroke-width:1;"/><polygon fill="#181818" points="581.98,225.8,572.98,221.8,576.98,225.8,572.98,229.8,581.98,225.8" style="stroke:#181818;stroke-width:1;"/><text fill="#000000" font-family="sans-serif" font-size="13" lengthAdjust="spacing" textLength="106.8211" x="457.5" y="218.697">Weighted Sum (z)</text></g><!--link Activation to Output Y--><g class="link" data-entity-1="Activation" data-entity-2="Output Y" data-source-line="31" data-uid="lnk22" id="link_Activation_Output Y"><path d="M600.05,225.8 C618.97,225.8 657.79,225.8 692.24,225.8" fill="none" id="Activation-to-Output Y" style="stroke:#181818;stroke-width:1;"/><polygon fill="#181818" points="698.24,225.8,689.24,221.8,693.24,225.8,689.24,229.8,698.24,225.8" style="stroke:#181818;stroke-width:1;"/><text fill="#000000" font-family="sans-serif" font-size="13" lengthAdjust="spacing" textLength="62.1011" x="618.25" y="218.697">Prediction</text></g><!--SRC=[PL71IiD04BtFLmpraWWjjCSUX5PGX89YAur83zliD5sQp9RDHglYr_W_VfEpILgZvh2yVVFUlCUct1dUAwSANAjqbpbRiRwqkNNedU9IHiGUofDgBogLqTo_veIEqkvCqqPLkL_GmKzoat4XLapb80SGj8epSVLkU5_vieUgH5D3V0UKBqg6SGj6Hy0nVFmoBybaszRzqk3M_hGShbemEW9U1NjgN1gyNv-rRLuLXVB6CfxDme9fNj59iuaESQsQfDuyTsNNZeW1aY7sBvgmPDH0YKkuWH88OOPzkPw286Z-KVoN0hPQAaoDn4VhfaQuGCqC1XqjZd6YjP6A1F33ohfExp4shqKw635wYw4p5MrqMtdv0VWOY_REaJRfiOWdN5llRO5sqzafxzfPSLLnRIZ7mf_Zt6I5DRh6zpHxgC52yHQ8DOQTy0q0]--></g></svg>