<svg xmlns="http://www.w3.org/2000/svg" xmlns:xlink="http://www.w3.org/1999/xlink" contentStyleType="text/css" data-diagram-type="DESCRIPTION" height="575px" preserveAspectRatio="none" style="width:899px;height:575px;" version="1.1" viewBox="0 0 899 575" width="899px" zoomAndPan="magnify"><defs/><g><!--cluster Top Module--><g class="cluster" data-entity="Top Module" data-source-line="1" data-uid="ent0002" id="cluster_Top Module"><path d="M490.5,428.309 L573.2457,428.309 A3.75,3.75 0 0 1 575.7457,430.809 L582.7457,453.3769 L742.5,453.3769 A2.5,2.5 0 0 1 745,455.8769 L745,565.809 A2.5,2.5 0 0 1 742.5,568.309 L490.5,568.309 A2.5,2.5 0 0 1 488,565.809 L488,430.809 A2.5,2.5 0 0 1 490.5,428.309" fill="none" style="stroke:#000000;stroke-width:1.5;"/><line style="stroke:#000000;stroke-width:1.5;" x1="488" x2="582.7457" y1="453.3769" y2="453.3769"/><text fill="#000000" font-family="sans-serif" font-size="14" font-weight="bold" lengthAdjust="spacing" textLength="81.7457" x="492" y="445.2749">Top Module</text></g><!--cluster UVM Testbench--><g class="cluster" data-entity="UVM Testbench" data-source-line="6" data-uid="ent0005" id="cluster_UVM Testbench"><path d="M8.5,42.309 L118.1676,42.309 A3.75,3.75 0 0 1 120.6676,44.809 L127.6676,67.3769 L889.5,67.3769 A2.5,2.5 0 0 1 892,69.8769 L892,374.809 A2.5,2.5 0 0 1 889.5,377.309 L8.5,377.309 A2.5,2.5 0 0 1 6,374.809 L6,44.809 A2.5,2.5 0 0 1 8.5,42.309" fill="none" style="stroke:#000000;stroke-width:1.5;"/><line style="stroke:#000000;stroke-width:1.5;" x1="6" x2="127.6676" y1="67.3769" y2="67.3769"/><text fill="#000000" font-family="sans-serif" font-size="14" font-weight="bold" lengthAdjust="spacing" textLength="108.6676" x="10" y="59.2749">UVM Testbench</text></g><!--cluster Test--><g class="cluster" data-entity="Test" data-source-line="7" data-uid="ent0006" id="cluster_Test"><rect fill="none" height="265" rx="2.5" ry="2.5" style="stroke:#181818;stroke-width:1;" width="838" x="30" y="88.309"/><rect fill="none" height="10" style="stroke:#181818;stroke-width:1;" width="15" x="848" y="93.309"/><rect fill="none" height="2" style="stroke:#181818;stroke-width:1;" width="4" x="846" y="95.309"/><rect fill="none" height="2" style="stroke:#181818;stroke-width:1;" width="4" x="846" y="99.309"/><text fill="#000000" font-family="sans-serif" font-size="14" font-weight="bold" lengthAdjust="spacing" textLength="64.0498" x="416.9751" y="116.2749">uvm_test</text></g><!--cluster Env--><g class="cluster" data-entity="Env" data-source-line="8" data-uid="ent0007" id="cluster_Env"><rect fill="none" height="195" rx="2.5" ry="2.5" style="stroke:#181818;stroke-width:1;" width="790" x="54" y="134.309"/><rect fill="none" height="10" style="stroke:#181818;stroke-width:1;" width="15" x="824" y="139.309"/><rect fill="none" height="2" style="stroke:#181818;stroke-width:1;" width="4" x="822" y="141.309"/><rect fill="none" height="2" style="stroke:#181818;stroke-width:1;" width="4" x="822" y="145.309"/><text fill="#000000" font-family="sans-serif" font-size="14" font-weight="bold" lengthAdjust="spacing" textLength="62.1038" x="417.9481" y="162.2749">uvm_env</text></g><!--cluster Agent--><g class="cluster" data-entity="Agent" data-source-line="9" data-uid="ent0008" id="cluster_Agent"><rect fill="none" height="125" rx="2.5" ry="2.5" style="stroke:#181818;stroke-width:1;" width="581" x="239" y="180.309"/><rect fill="none" height="10" style="stroke:#181818;stroke-width:1;" width="15" x="800" y="185.309"/><rect fill="none" height="2" style="stroke:#181818;stroke-width:1;" width="4" x="798" y="187.309"/><rect fill="none" height="2" style="stroke:#181818;stroke-width:1;" width="4" x="798" y="191.309"/><text fill="#000000" font-family="sans-serif" font-size="14" font-weight="bold" lengthAdjust="spacing" textLength="77.5317" x="490.7341" y="208.2749">uvm_agent</text></g><!--entity DUT--><g class="entity" data-entity="DUT" data-source-line="2" data-uid="ent0003" id="entity_DUT"><rect fill="#F1F1F1" height="49.0679" rx="2.5" ry="2.5" style="stroke:#181818;stroke-width:0.5;" width="68.2379" x="661" y="495.809"/><rect fill="#F1F1F1" height="10" style="stroke:#181818;stroke-width:0.5;" width="15" x="709.2379" y="500.809"/><rect fill="#F1F1F1" height="2" style="stroke:#181818;stroke-width:0.5;" width="4" x="707.2379" y="502.809"/><rect fill="#F1F1F1" height="2" style="stroke:#181818;stroke-width:0.5;" width="4" x="707.2379" y="506.809"/><text fill="#000000" font-family="sans-serif" font-size="14" lengthAdjust="spacing" textLength="28.2379" x="676" y="530.7749">DUT</text></g><!--entity VIF--><g class="entity" data-entity="VIF" data-source-line="3" data-uid="ent0004" id="entity_VIF"><ellipse cx="565" cy="520.309" fill="#F1F1F1" rx="8" ry="8" style="stroke:#181818;stroke-width:0.5;"/><text fill="#000000" font-family="sans-serif" font-size="14" lengthAdjust="spacing" textLength="106.0216" x="511.9892" y="552.2749">Virtual Interface</text></g><!--entity Scoreboard--><g class="entity" data-entity="Scoreboard" data-source-line="14" data-uid="ent0012" id="entity_Scoreboard"><rect fill="#F1F1F1" height="49.0679" rx="2.5" ry="2.5" style="stroke:#181818;stroke-width:0.5;" width="149.9696" x="70" y="240.309"/><rect fill="#F1F1F1" height="10" style="stroke:#181818;stroke-width:0.5;" width="15" x="199.9696" y="245.309"/><rect fill="#F1F1F1" height="2" style="stroke:#181818;stroke-width:0.5;" width="4" x="197.9696" y="247.309"/><rect fill="#F1F1F1" height="2" style="stroke:#181818;stroke-width:0.5;" width="4" x="197.9696" y="251.309"/><text fill="#000000" font-family="sans-serif" font-size="14" lengthAdjust="spacing" textLength="109.9696" x="85" y="275.2749">uvm_scoreboard</text></g><!--entity Sequencer--><g class="entity" data-entity="Sequencer" data-source-line="10" data-uid="ent0009" id="entity_Sequencer"><rect fill="#F1F1F1" height="49.0679" rx="2.5" ry="2.5" style="stroke:#181818;stroke-width:0.5;" width="143.8796" x="497" y="240.309"/><rect fill="#F1F1F1" height="10" style="stroke:#181818;stroke-width:0.5;" width="15" x="620.8796" y="245.309"/><rect fill="#F1F1F1" height="2" style="stroke:#181818;stroke-width:0.5;" width="4" x="618.8796" y="247.309"/><rect fill="#F1F1F1" height="2" style="stroke:#181818;stroke-width:0.5;" width="4" x="618.8796" y="251.309"/><text fill="#000000" font-family="sans-serif" font-size="14" lengthAdjust="spacing" textLength="103.8796" x="512" y="275.2749">uvm_sequencer</text></g><!--entity Driver--><g class="entity" data-entity="Driver" data-source-line="11" data-uid="ent0010" id="entity_Driver"><rect fill="#F1F1F1" height="49.0679" rx="2.5" ry="2.5" style="stroke:#181818;stroke-width:0.5;" width="113.8637" x="255" y="240.309"/><rect fill="#F1F1F1" height="10" style="stroke:#181818;stroke-width:0.5;" width="15" x="348.8637" y="245.309"/><rect fill="#F1F1F1" height="2" style="stroke:#181818;stroke-width:0.5;" width="4" x="346.8637" y="247.309"/><rect fill="#F1F1F1" height="2" style="stroke:#181818;stroke-width:0.5;" width="4" x="346.8637" y="251.309"/><text fill="#000000" font-family="sans-serif" font-size="14" lengthAdjust="spacing" textLength="73.8637" x="270" y="275.2749">uvm_driver</text></g><!--entity Monitor--><g class="entity" data-entity="Monitor" data-source-line="12" data-uid="ent0011" id="entity_Monitor"><rect fill="#F1F1F1" height="49.0679" rx="2.5" ry="2.5" style="stroke:#181818;stroke-width:0.5;" width="128.1997" x="676" y="240.309"/><rect fill="#F1F1F1" height="10" style="stroke:#181818;stroke-width:0.5;" width="15" x="784.1997" y="245.309"/><rect fill="#F1F1F1" height="2" style="stroke:#181818;stroke-width:0.5;" width="4" x="782.1997" y="247.309"/><rect fill="#F1F1F1" height="2" style="stroke:#181818;stroke-width:0.5;" width="4" x="782.1997" y="251.309"/><text fill="#000000" font-family="sans-serif" font-size="14" lengthAdjust="spacing" textLength="88.1997" x="691" y="275.2749">uvm_monitor</text></g><!--link Sequencer to Driver--><g class="link" data-entity-1="Sequencer" data-entity-2="Driver" data-source-line="19" data-uid="lnk13" id="link_Sequencer_Driver"><path d="M496.94,264.809 C456.49,264.809 412.75,264.809 375.04,264.809" fill="none" id="Sequencer-to-Driver" style="stroke:#181818;stroke-width:1;"/><polygon fill="#181818" points="369.04,264.809,378.04,268.809,374.04,264.809,378.04,260.809,369.04,264.809" style="stroke:#181818;stroke-width:1;"/><text fill="#000000" font-family="sans-serif" font-size="13" lengthAdjust="spacing" textLength="91.8321" x="387.5" y="257.706">sequence_item</text></g><!--link Driver to VIF--><g class="link" data-entity-1="Driver" data-entity-2="VIF" data-source-line="20" data-uid="lnk14" id="link_Driver_VIF"><path d="M335.8,289.659 C390.42,344.379 518.4311,472.6526 552.6011,506.8826" fill="none" id="Driver-to-VIF" style="stroke:#181818;stroke-width:1;"/><polygon fill="#181818" points="556.84,511.129,553.3125,501.9335,553.3076,507.5904,547.6507,507.5854,556.84,511.129" style="stroke:#181818;stroke-width:1;"/><text fill="#000000" font-family="sans-serif" font-size="13" lengthAdjust="spacing" textLength="70.9801" x="454" y="408.206">Pin Wiggles</text></g><!--reverse link Monitor to VIF--><g class="link" data-entity-1="Monitor" data-entity-2="VIF" data-source-line="21" data-uid="lnk16" id="link_Monitor_VIF"><path d="M720.6305,294.667 C704.3605,318.847 681.77,352.299 659,385.309 C625.93,433.269 585.55,490.349 570.77,511.179" fill="none" id="Monitor-backto-VIF" style="stroke:#181818;stroke-width:1;"/><polygon fill="#181818" points="723.98,289.689,715.637,294.923,721.1887,293.8373,722.2743,299.389,723.98,289.689" style="stroke:#181818;stroke-width:1;"/><text fill="#000000" font-family="sans-serif" font-size="13" lengthAdjust="spacing" textLength="79.9501" x="652" y="408.206">Pin Sampling</text></g><!--link Monitor to Scoreboard--><g class="link" data-entity-1="Monitor" data-entity-2="Scoreboard" data-source-line="22" data-uid="lnk17" id="link_Monitor_Scoreboard"><path d="M738.36,240.239 C733.97,196.469 717.85,105.859 659,66.309 C581.53,14.249 317.86,16.399 239,66.309 C177.62,105.159 156.5196,190.1895 149.2396,234.1795" fill="none" id="Monitor-to-Scoreboard" style="stroke:#181818;stroke-width:1;"/><polygon fill="#181818" points="148.26,240.099,153.6758,231.8729,149.0764,235.1661,145.7831,230.5667,148.26,240.099" style="stroke:#181818;stroke-width:1;"/><text fill="#000000" font-family="sans-serif" font-size="13" lengthAdjust="spacing" textLength="130.6631" x="383" y="22.206">Analysis Transactions</text></g><!--SRC=[RP9DQyCm38Rl_XMYz_o17GQbtQ27mA1fTYYbE8wNcIQIPpiPO-I_Jyv7ksxnITBxI7xzuIy6hNIoWKAgI-MenN93DJa8Jg9dIMCGbZLPQLXbP26bigtr2hu5y3fk3zbfY0m6xTwaOYmtBhIoXjrSMe7qaE-UHIzkmmvv2fdseT2etkTvYXfBo9l2iUsQSs3z59iZE24BcCPke9wm-mKjWBmnZWFNCVe33mUAcDSVBRlIRa3tSxOCbyvq4xaTmcMi8JI1HYuTupkm5_zjA7Aw8EdAqSSr5VTDVRpNgqj87YSZy03pISucw4PCvQIaJsIANuIH5uFmQgggrbx4Ij9QrYQBaxwNZQqDLc8kCt6pmz0QPVtb3JzK_3TI1KFeVm00]--></g></svg>