<svg xmlns="http://www.w3.org/2000/svg" xmlns:xlink="http://www.w3.org/1999/xlink" contentStyleType="text/css" data-diagram-type="DESCRIPTION" height="615px" preserveAspectRatio="none" style="width:899px;height:615px;" version="1.1" viewBox="0 0 899 615" width="899px" zoomAndPan="magnify"><title>Basic UVM Testbench</title><defs/><g><g class="title" data-source-line="2"><text fill="#000000" font-family="sans-serif" font-size="14" font-weight="bold" lengthAdjust="spacing" textLength="148.5954" x="368.2023" y="24.9659">Basic UVM Testbench</text></g><!--cluster Top Module--><g class="cluster" data-entity="Top Module" data-source-line="4" data-uid="ent0002" id="cluster_Top Module"><path d="M490.5,468.3769 L573.2457,468.3769 A3.75,3.75 0 0 1 575.7457,470.8769 L582.7457,493.4448 L742.5,493.4448 A2.5,2.5 0 0 1 745,495.9448 L745,605.8769 A2.5,2.5 0 0 1 742.5,608.3769 L490.5,608.3769 A2.5,2.5 0 0 1 488,605.8769 L488,470.8769 A2.5,2.5 0 0 1 490.5,468.3769" fill="none" style="stroke:#000000;stroke-width:1.5;"/><line style="stroke:#000000;stroke-width:1.5;" x1="488" x2="582.7457" y1="493.4448" y2="493.4448"/><text fill="#000000" font-family="sans-serif" font-size="14" font-weight="bold" lengthAdjust="spacing" textLength="81.7457" x="492" y="485.3429">Top Module</text></g><!--cluster UVM Testbench--><g class="cluster" data-entity="UVM Testbench" data-source-line="9" data-uid="ent0005" id="cluster_UVM Testbench"><path d="M8.5,82.3769 L118.1676,82.3769 A3.75,3.75 0 0 1 120.6676,84.8769 L127.6676,107.4448 L889.5,107.4448 A2.5,2.5 0 0 1 892,109.9448 L892,414.8769 A2.5,2.5 0 0 1 889.5,417.3769 L8.5,417.3769 A2.5,2.5 0 0 1 6,414.8769 L6,84.8769 A2.5,2.5 0 0 1 8.5,82.3769" fill="none" style="stroke:#000000;stroke-width:1.5;"/><line style="stroke:#000000;stroke-width:1.5;" x1="6" x2="127.6676" y1="107.4448" y2="107.4448"/><text fill="#000000" font-family="sans-serif" font-size="14" font-weight="bold" lengthAdjust="spacing" textLength="108.6676" x="10" y="99.3429">UVM Testbench</text></g><!--cluster Test--><g class="cluster" data-entity="Test" data-source-line="10" data-uid="ent0006" id="cluster_Test"><rect fill="none" height="265" rx="2.5" ry="2.5" style="stroke:#181818;stroke-width:1;" width="838" x="30" y="128.3769"/><rect fill="none" height="10" style="stroke:#181818;stroke-width:1;" width="15" x="848" y="133.3769"/><rect fill="none" height="2" style="stroke:#181818;stroke-width:1;" width="4" x="846" y="135.3769"/><rect fill="none" height="2" style="stroke:#181818;stroke-width:1;" width="4" x="846" y="139.3769"/><text fill="#000000" font-family="sans-serif" font-size="14" font-weight="bold" lengthAdjust="spacing" textLength="64.0498" x="416.9751" y="156.3429">uvm_test</text></g><!--cluster Env--><g class="cluster" data-entity="Env" data-source-line="11" data-uid="ent0007" id="cluster_Env"><rect fill="none" height="195" rx="2.5" ry="2.5" style="stroke:#181818;stroke-width:1;" width="790" x="54" y="174.3769"/><rect fill="none" height="10" style="stroke:#181818;stroke-width:1;" width="15" x="824" y="179.3769"/><rect fill="none" height="2" style="stroke:#181818;stroke-width:1;" width="4" x="822" y="181.3769"/><rect fill="none" height="2" style="stroke:#181818;stroke-width:1;" width="4" x="822" y="185.3769"/><text fill="#000000" font-family="sans-serif" font-size="14" font-weight="bold" lengthAdjust="spacing" textLength="62.1038" x="417.9481" y="202.3429">uvm_env</text></g><!--cluster Agent--><g class="cluster" data-entity="Agent" data-source-line="12" data-uid="ent0008" id="cluster_Agent"><rect fill="none" height="125" rx="2.5" ry="2.5" style="stroke:#181818;stroke-width:1;" width="581" x="239" y="220.3769"/><rect fill="none" height="10" style="stroke:#181818;stroke-width:1;" width="15" x="800" y="225.3769"/><rect fill="none" height="2" style="stroke:#181818;stroke-width:1;" width="4" x="798" y="227.3769"/><rect fill="none" height="2" style="stroke:#181818;stroke-width:1;" width="4" x="798" y="231.3769"/><text fill="#000000" font-family="sans-serif" font-size="14" font-weight="bold" lengthAdjust="spacing" textLength="77.5317" x="490.7341" y="248.3429">uvm_agent</text></g><!--entity DUT--><g class="entity" data-entity="DUT" data-source-line="5" data-uid="ent0003" id="entity_DUT"><rect fill="#F1F1F1" height="49.0679" rx="2.5" ry="2.5" style="stroke:#181818;stroke-width:0.5;" width="68.2379" x="661" y="535.8769"/><rect fill="#F1F1F1" height="10" style="stroke:#181818;stroke-width:0.5;" width="15" x="709.2379" y="540.8769"/><rect fill="#F1F1F1" height="2" style="stroke:#181818;stroke-width:0.5;" width="4" x="707.2379" y="542.8769"/><rect fill="#F1F1F1" height="2" style="stroke:#181818;stroke-width:0.5;" width="4" x="707.2379" y="546.8769"/><text fill="#000000" font-family="sans-serif" font-size="14" lengthAdjust="spacing" textLength="28.2379" x="676" y="570.8429">DUT</text></g><!--entity VIF--><g class="entity" data-entity="VIF" data-source-line="6" data-uid="ent0004" id="entity_VIF"><ellipse cx="565" cy="560.3769" fill="#F1F1F1" rx="8" ry="8" style="stroke:#181818;stroke-width:0.5;"/><text fill="#000000" font-family="sans-serif" font-size="14" lengthAdjust="spacing" textLength="106.0216" x="511.9892" y="592.3429">Virtual Interface</text></g><!--entity Scoreboard--><g class="entity" data-entity="Scoreboard" data-source-line="17" data-uid="ent0012" id="entity_Scoreboard"><rect fill="#F1F1F1" height="49.0679" rx="2.5" ry="2.5" style="stroke:#181818;stroke-width:0.5;" width="149.9696" x="70" y="280.3769"/><rect fill="#F1F1F1" height="10" style="stroke:#181818;stroke-width:0.5;" width="15" x="199.9696" y="285.3769"/><rect fill="#F1F1F1" height="2" style="stroke:#181818;stroke-width:0.5;" width="4" x="197.9696" y="287.3769"/><rect fill="#F1F1F1" height="2" style="stroke:#181818;stroke-width:0.5;" width="4" x="197.9696" y="291.3769"/><text fill="#000000" font-family="sans-serif" font-size="14" lengthAdjust="spacing" textLength="109.9696" x="85" y="315.3429">uvm_scoreboard</text></g><!--entity Sequencer--><g class="entity" data-entity="Sequencer" data-source-line="13" data-uid="ent0009" id="entity_Sequencer"><rect fill="#F1F1F1" height="49.0679" rx="2.5" ry="2.5" style="stroke:#181818;stroke-width:0.5;" width="143.8796" x="497" y="280.3769"/><rect fill="#F1F1F1" height="10" style="stroke:#181818;stroke-width:0.5;" width="15" x="620.8796" y="285.3769"/><rect fill="#F1F1F1" height="2" style="stroke:#181818;stroke-width:0.5;" width="4" x="618.8796" y="287.3769"/><rect fill="#F1F1F1" height="2" style="stroke:#181818;stroke-width:0.5;" width="4" x="618.8796" y="291.3769"/><text fill="#000000" font-family="sans-serif" font-size="14" lengthAdjust="spacing" textLength="103.8796" x="512" y="315.3429">uvm_sequencer</text></g><!--entity Driver--><g class="entity" data-entity="Driver" data-source-line="14" data-uid="ent0010" id="entity_Driver"><rect fill="#F1F1F1" height="49.0679" rx="2.5" ry="2.5" style="stroke:#181818;stroke-width:0.5;" width="113.8637" x="255" y="280.3769"/><rect fill="#F1F1F1" height="10" style="stroke:#181818;stroke-width:0.5;" width="15" x="348.8637" y="285.3769"/><rect fill="#F1F1F1" height="2" style="stroke:#181818;stroke-width:0.5;" width="4" x="346.8637" y="287.3769"/><rect fill="#F1F1F1" height="2" style="stroke:#181818;stroke-width:0.5;" width="4" x="346.8637" y="291.3769"/><text fill="#000000" font-family="sans-serif" font-size="14" lengthAdjust="spacing" textLength="73.8637" x="270" y="315.3429">uvm_driver</text></g><!--entity Monitor--><g class="entity" data-entity="Monitor" data-source-line="15" data-uid="ent0011" id="entity_Monitor"><rect fill="#F1F1F1" height="49.0679" rx="2.5" ry="2.5" style="stroke:#181818;stroke-width:0.5;" width="128.1997" x="676" y="280.3769"/><rect fill="#F1F1F1" height="10" style="stroke:#181818;stroke-width:0.5;" width="15" x="784.1997" y="285.3769"/><rect fill="#F1F1F1" height="2" style="stroke:#181818;stroke-width:0.5;" width="4" x="782.1997" y="287.3769"/><rect fill="#F1F1F1" height="2" style="stroke:#181818;stroke-width:0.5;" width="4" x="782.1997" y="291.3769"/><text fill="#000000" font-family="sans-serif" font-size="14" lengthAdjust="spacing" textLength="88.1997" x="691" y="315.3429">uvm_monitor</text></g><!--link Sequencer to Driver--><g class="link" data-entity-1="Sequencer" data-entity-2="Driver" data-source-line="22" data-uid="lnk13" id="link_Sequencer_Driver"><path d="M496.94,304.8769 C456.49,304.8769 412.75,304.8769 375.04,304.8769" fill="none" id="Sequencer-to-Driver" style="stroke:#181818;stroke-width:1;"/><polygon fill="#181818" points="369.04,304.8769,378.04,308.8769,374.04,304.8769,378.04,300.8769,369.04,304.8769" style="stroke:#181818;stroke-width:1;"/><text fill="#000000" font-family="sans-serif" font-size="13" lengthAdjust="spacing" textLength="91.8321" x="387.5" y="297.7739">sequence_item</text></g><!--link Driver to VIF--><g class="link" data-entity-1="Driver" data-entity-2="VIF" data-source-line="23" data-uid="lnk14" id="link_Driver_VIF"><path d="M335.8,329.7269 C390.42,384.4469 518.4311,512.7206 552.6011,546.9506" fill="none" id="Driver-to-VIF" style="stroke:#181818;stroke-width:1;"/><polygon fill="#181818" points="556.84,551.1969,553.3125,542.0014,553.3076,547.6583,547.6507,547.6533,556.84,551.1969" style="stroke:#181818;stroke-width:1;"/><text fill="#000000" font-family="sans-serif" font-size="13" lengthAdjust="spacing" textLength="70.9801" x="454" y="448.2739">Pin Wiggles</text></g><!--reverse link Monitor to VIF--><g class="link" data-entity-1="Monitor" data-entity-2="VIF" data-source-line="24" data-uid="lnk16" id="link_Monitor_VIF"><path d="M720.6305,334.7349 C704.3605,358.9149 681.77,392.3669 659,425.3769 C625.93,473.3369 585.55,530.4169 570.77,551.2469" fill="none" id="Monitor-backto-VIF" style="stroke:#181818;stroke-width:1;"/><polygon fill="#181818" points="723.98,329.7569,715.637,334.9909,721.1887,333.9053,722.2743,339.457,723.98,329.7569" style="stroke:#181818;stroke-width:1;"/><text fill="#000000" font-family="sans-serif" font-size="13" lengthAdjust="spacing" textLength="79.9501" x="652" y="448.2739">Pin Sampling</text></g><!--link Monitor to Scoreboard--><g class="link" data-entity-1="Monitor" data-entity-2="Scoreboard" data-source-line="25" data-uid="lnk17" id="link_Monitor_Scoreboard"><path d="M738.36,280.3069 C733.97,236.5369 717.85,145.9269 659,106.3769 C581.53,54.3169 317.86,56.4669 239,106.3769 C177.62,145.2269 156.5196,230.2574 149.2396,274.2474" fill="none" id="Monitor-to-Scoreboard" style="stroke:#181818;stroke-width:1;"/><polygon fill="#181818" points="148.26,280.1669,153.6758,271.9408,149.0764,275.234,145.7831,270.6346,148.26,280.1669" style="stroke:#181818;stroke-width:1;"/><text fill="#000000" font-family="sans-serif" font-size="13" lengthAdjust="spacing" textLength="130.6631" x="383" y="62.2739">Analysis Transactions</text></g><!--SRC=[RPBDJiCm3CVlUGfhzxu01wJ1GDgX4j8-E4pJbAMcM4kTagH52EtTSVenDcXEZlsp_NUSS2AkjTSL7BKvbTurN3mwwpn4hpb823ag5IbQX0SToC1ccyCQGpmYctUbQidJ9S9ixMh8NT5OdC6t0ZcxnMQzxopYYFvD6y6sv6EZBIn7rmnqWEtoMPslYjqq6UiPLzMEHH3ichOwH8dlKt821sG2GsuxwedRAsW2bCRS5vmdwm_S3PImW1-Dg4BVeQlnDWqNdjg1N7JcD5OvfkXwBk_j6_2i_iimpkFHQL_qEYvNTPjqJkzwKGdP_I04xc2Sv40HApMuiy9zib2o4K5UYE6Loj9YKCcJDRN41eb3VAMhsXANQdGByIj7e3bh-nL85fN-b3QH78SV]--></g></svg>